<!-- Created with Inkscape (http://www.inkscape.org/) -->
<svg xmlns:rdf="http://www.w3.org/1999/02/22-rdf-syntax-ns#" xmlns="http://www.w3.org/2000/svg" xml:space="preserve" height="1052.4" width="744.09" version="1.1" xmlns:cc="http://creativecommons.org/ns#" xmlns:dc="http://purl.org/dc/elements/1.1/"><metadata><rdf:RDF><cc:Work rdf:about=""><dc:format>image/svg+xml</dc:format><dc:type rdf:resource="http://purl.org/dc/dcmitype/StillImage"/><dc:title/></cc:Work></rdf:RDF></metadata><defs><clipPath id="clipPath20" clipPathUnits="userSpaceOnUse"><path d="m0,0,595.28,0,0,841.89h-595.28v-841.89z"/></clipPath><linearGradient id="linearGradient24" y2="598.01" gradientUnits="userSpaceOnUse" x2="720.21" gradientTransform="matrix(0,0.0927103,10.065117,0,-5712.73,275.07364)" y1="598.01" x1="24.699"><stop stop-color="#FFF" offset="0"/><stop stop-opacity="0" stop-color="#FFF" offset="1"/></linearGradient><mask id="mask30" height="1" width="1" y="0" x="0" maskUnits="userSpaceOnUse"><g clip-path="url(#clipPath20)"><path fill-rule="nonzero" fill="url(#linearGradient24)" d="m0,0,595.28,0,0,841.89h-595.28v-841.89z"/></g></mask><clipPath id="clipPath44" clipPathUnits="userSpaceOnUse"><path d="m0,0,595.28,0,0,841.89h-595.28v-841.89z"/></clipPath><linearGradient id="linearGradient48" y2="598.01" gradientUnits="userSpaceOnUse" x2="720.21" gradientTransform="matrix(0,0.0927103,10.065117,0,-5712.73,275.07364)" y1="598.01" x1="24.699"><stop stop-color="#FFF" offset="0"/><stop stop-color="#FFF" offset="1"/></linearGradient></defs><g transform="matrix(1.25,0,0,-1.25,0,1052.3622)"><path fill-rule="nonzero" fill="#000" d="m43.973,293.04c6.941,8.563,12.617,16.277,12.617,17.145,0,0.863,2.402,2.836,5.336,4.375,7.918,4.156,21.652,25.172,24.265,37.136,1.954,8.914,1.774,10.957-1.238,14.223-2.793,3.023-3.035,4.695-1.18,8.098,1.286,2.355,3.25,4.285,4.364,4.285,1.113,0,2.023,5.555,2.023,12.347,0,9.379-0.726,12.348-3.023,12.348-1.66,0-3.5,0.754-4.082,1.676-1.063,1.691,2.617,13.711,5.586,18.242,0.875,1.336,0.773,2.926-0.227,3.531-1,0.606-1.992,6.848-2.207,13.871-0.566,18.461-8.012,41.5-16.684,51.606-4.085,4.766-5.339,8.805-5.82,18.762-0.437,9.058-2.441,16.379-7.012,25.582-3.519,7.093-6.398,13.808-6.398,14.922,0,4.054,3.883,1.871,7.992-4.493l4.211-6.519,1.305,12.176c1.855,17.3,9.125,44.293,13.09,48.586,1.847,2.003,8.187,5.433,14.086,7.617,10.453,3.875,10.714,4.176,10.226,11.683-0.277,4.239-1.93,9.25-3.672,11.141-4.035,4.375-4.047,8.059-0.023,9.57,1.754,0.664,3.144,3.723,3.144,6.918,0,6.77,2.965,8.231,16.703,8.231,11.067,0,15.926-3.489,13.836-9.934-0.925-2.859-0.097-4.262,2.977-5.051,5.012-1.285,5.559-6.086,1.105-9.707-1.73-1.41-3.144-3.922-3.144-5.586s-1.875-5.363-4.168-8.222c-5.004-6.235-4.305-7.657,6.406-13.016,7.977-3.988,10.5-8.609,6.149-11.246-1.317-0.801-1.387-2.59-0.192-4.781,1.262-2.313,0.86-5.949-1.183-10.68-2.934-6.793-3.254-6.965-6.047-3.258-2.567,3.41-3.114,3.496-4.219,0.676-0.695-1.781-0.246-5.109,1-7.391,1.262-2.316,1.445-4.648,0.41-5.277-3.285-1.992-4.137-11.719-1.125-12.852,1.797-0.679,2.738-4.312,2.621-10.117-0.101-4.984,1.059-10.527,2.578-12.324,2.246-2.652,2.262-4.047,0.094-7.453-1.914-3.008-2.027-4.824-0.398-6.418,1.25-1.227,2.383-5.977,2.519-10.563,0.238-7.996,0.313-8.085,1.848-2.16,0.883,3.395,1.715,10.602,1.851,16.012,0.172,6.871,1.239,10.211,3.536,11.078,5.902,2.219,7.257-2.16,5.828-18.785-1.028-11.922-2.453-17.207-5.434-20.125-3.629-3.562-4.047-7.203-4.137-36.195-0.078-25.348,0.633-33.942,3.325-40.207,4.257-9.903,4.332-13.637,0.277-13.637-2.207,0-3.148-2.184-3.148-7.309,0-6.273,0.894-7.617,6.296-9.461,4.512-1.543,6.293-3.48,6.293-6.843,0-7.047-4.293-9.254-19.097-9.825l-13.426-0.515,0.492,6.172c1.215,15.355,0.86,21.875-2.23,41.004-1.813,11.234-2.774,21.254-2.137,22.269,1.574,2.492-3.594,42.742-6.109,47.61-1.692,3.273-2.957,1.671-8.075-10.227-6.41-14.902-8.027-31.035-3.55-35.422,3.98-3.906-1.262-8.117-5.657-4.539-2.961,2.41-3.16,1.734-1.898-6.363,0.777-4.985,2.258-10.121,3.297-11.414,1.035-1.297,1.617-3.59,1.285-5.098-0.328-1.508,1.527-3.059,4.125-3.445,2.797-0.418,4.723,0.359,4.723,1.906,0,2.078,0.527,2.09,2.605,0.059,1.871-1.836,1.949-2.969,0.277-4.016-1.648-1.031-1.781-6.274-0.457-17.918,1.032-9.055,1.821-20.02,1.758-24.363-0.129-8.602-8.426-25.868-19.16-39.868-5.066-6.609-6.098-9.324-4.328-11.414,1.742-2.058,1.285-4.257-1.836-8.82-2.285-3.344-5.965-10.012-8.176-14.824l-4.023-8.742h-20.074-20.079l12.614,15.566zm44.894,206.38c0.383,11.699-0.226,16.887-2.055,17.574-1.531,0.574-2.597,4.789-2.597,10.285,0,12.625-2.809,16.7-5.102,7.403-0.976-3.953-2.316-9.324-2.972-11.934-0.661-2.609,0.457-8.344,2.48-12.746,2.098-4.562,3.207-10.441,2.578-13.668-0.949-4.855,4.25-16.203,6.469-14.129,0.363,0.34,0.902,8.082,1.199,17.215zm-3.582-218.35c0.711,1.981,2.93,4.993,4.934,6.688,5.101,4.32,11.504,24.219,10.734,33.351-0.789,9.368,4.817,19.414,11.789,21.133,2.774,0.684,8.727,3.52,13.223,6.305,8.613,5.332,21.625,6.766,24.207,2.672,1.426-2.262-1.125-4.926-11.375-11.875-11.082-7.516-21.938-32.563-16.762-38.68,1.727-2.039,1.613-4.07-0.426-7.812-2.132-3.907-2.214-6.231-0.363-10.219l2.399-5.16h-19.825c-17.968,0-19.703,0.336-18.535,3.597zm96.543-0.765c-1.746,4.461,2.496,19.855,7.031,25.508,5.121,6.386,5.68,27.324,0.961,36.199-4.797,9.011-4.058,15.406,1.946,16.883,9.152,2.253,12.699,0.367,13.433-7.153,0.375-3.84,2.133-9.148,3.906-11.801,2.188-3.277,2.817-7.3,1.961-12.554-3.796-23.328-3.832-24.723-0.746-29.567,1.977-3.097,2.754-7.773,2.11-12.632l-1.024-7.715h-14.234c-10.152,0-14.555,0.812-15.344,2.832zm45.856-0.262c-2.504,7.715-7.426,30.188-7.426,33.914,0,2.379,1.164,4.707,2.586,5.172,2.027,0.664,1.941,4.148-0.41,16.121-3.219,16.41-3.293,19.406-1.477,61.328,0.996,23.106,1.832,28.242,5.18,31.899,2.191,2.394,4.586,6.015,5.316,8.043,1.227,3.402-5.672,44.054-7.836,46.175-1.465,1.438-5.472-13.652-6.687-25.172-1.196-11.347-4.918-25.746-7.379-28.558-0.871-0.992-0.528-3.465,0.761-5.488,1.668-2.621,1.7-4.481,0.11-6.426-1.313-1.606-1.535-4.442-0.543-6.856,2.422-5.894,2.351-17.023-0.113-18.519-1.157-0.699-2.098-4.817-2.098-9.153,0-10.355-6.445-18.617-11.934-15.296-2.957,1.789-3.699,4.539-3.336,12.347,0.258,5.524,0.727,25.125,1.047,43.559,0.336,19.301,1.473,34.133,2.68,34.98,2.391,1.672,2.527,2.606,4.297,29.25,1.691,25.45,1.98,26.266,7.574,21.371l4.442-3.878-3.543,6.792c-1.95,3.735-4.782,7.258-6.293,7.829-3.305,1.242-2.856,21.355,0.671,30.265,2.469,6.231,3.11,25.746,1.024,31.082-0.703,1.789-3.063,3.254-5.246,3.254-2.188,0-3.973,0.926-3.973,2.059,0,1.129-1.269,2.054-2.824,2.054-3.57,0-10.91,7.801-9.051,9.622,0.762,0.75,3.746,0.125,6.629-1.387,6.527-3.426,9.891-0.746,4.191,3.344-6.984,5.007-13.992,5.886-16.816,2.101-2.871-3.851-18.785-4.765-21.027-1.207-0.754,1.199-0.192,4.984,1.254,8.41,2.277,5.387,3.367,6.024,8.074,4.739,2.992-0.821,14.644-1.887,25.898-2.375,22.121-0.954,23.805-0.036,17.102,9.347-3.078,4.309-3.078,5.004,0,8.336,1.844,2,3.355,4.723,3.355,6.047,0,4.813,8.383,10.645,15.215,10.578,8.356-0.082,14.16-4.105,14.16-9.816,0-2.356,0.985-4.875,2.184-5.606,1.203-0.726,1.609-3.097,0.91-5.265-0.703-2.168-0.723-5.653-0.047-7.739,1.102-3.41,2.465-3.609,13.246-1.949,6.61,1.016,13.68,1.418,15.715,0.899,2.043-0.524,4.859,0.675,6.305,2.683,3.73,5.195,11.765,7.34,13.254,3.539,0.648-1.664,3.007-3.496,5.234-4.066,4.77-1.223,5.473-5.539,0.902-5.539-2.089,0-3.144-2.051-3.144-6.106,0-9.031-6.274-20.582-11.406-20.996-2.383-0.195-6.219-0.527-8.528-0.738-2.308-0.215-7.664-0.52-11.902-0.68-6.746-0.254-7.977-1.121-9.875-6.976-1.305-4.02-1.68-16.539-0.941-31.383,1.972-39.754,1.796-54.133-0.969-79.223-1.434-13.015-3.645-33.269-4.91-45.008-1.828-16.91-3.383-22.898-7.489-28.808-6.113-8.801-5.504-19.582,1.375-24.305,5.282-3.629,6.106-18.047,1.137-19.914-4.711-1.773-3.801-10.668,2.012-19.703,2.84-4.41,6.051-8.555,7.133-9.211,1.086-0.656,3.519-8.375,5.414-17.148,1.894-8.778,3.894-18.04,4.449-20.586,0.976-4.5,0.531-4.629-15.887-4.629-11.668,0-17.148,0.793-17.726,2.57zm54.367,323.9c1.879,7.336-1.141,8.719-13.735,6.278l-10.449-2.028,7.949-4.793c10.469-6.312,14.516-6.175,16.235,0.543zm73.086-323.9c-1.114,1.414-6.449,11.371-11.86,22.121-5.41,10.75-11.933,22.16-14.492,25.356-4.344,5.414-4.41,5.941-0.988,7.816,4.836,2.652,4.633,6.23-0.731,12.914-5.211,6.5-10.109,25.098-10.211,38.797-0.043,5.555-1.05,9.773-2.332,9.773-1.242,0-2.085,2.547-1.878,5.661,0.21,3.113,0.199,6.121-0.02,6.687-0.223,0.566-0.711,10.289-1.09,21.605-0.754,22.696-5.5,38.192-14.668,47.887-3.668,3.883-5.125,7.641-4.937,12.762,0.496,13.746-2.801,29.527-6.871,32.851-5.399,4.407-7.797,16.59-3.27,16.59,1.82,0,4.27-1.621,5.445-3.601,1.547-2.606,2.157,2.699,2.204,19.183,0.078,28.547,3.585,40.039,14.414,47.254,4.183,2.789,9.746,5.071,12.363,5.071,5.543,0,5.953,1.785,1.68,7.324-1.696,2.195-3.11,5.969-3.149,8.383-0.039,2.625-1.754,4.824-4.262,5.468-2.308,0.59-4.168,1.856-4.129,2.813,0.247,6.418,18.258,17.578,28.372,17.578,12.675,0,22.093-9.484,15.828-15.945-1.043-1.075-2.231-6.379-2.641-11.785l-0.75-9.829,8.414-2.046c16.317-3.977,17.106-5.711,18.231-40.028,0.371-11.32,1.461-21.144,2.425-21.836,0.965-0.691,2.231-5.785,2.821-11.316,0.586-5.531,1.789-10.524,2.668-11.09s2.238-8.957,3.027-18.648c1.309-16.157,1.07-17.934-2.895-21.454-6.804-6.039-9.449-1.336-9.597,17.063-0.176,21.867-2.703,41.254-6.207,47.57-2.762,4.981-2.946,4.414-3.024-9.203-0.05-8.172,0.953-15.523,2.293-16.836,1.305-1.281,1.746-3.937,0.977-5.902-1.629-4.168-3.883-59.973-3.149-77.988,0.489-12.032,0.172-39.387-0.64-55.168-0.328-6.422,0.801-8.946,6.23-13.926,7.477-6.852,7.082-11.121-1.226-13.266-6.203-1.597-6.688-1.234,9.754-7.273,13.648-5.016,25.781-22.516,15.609-22.516-2.004,0,0.121-1.941,4.719-4.312,10.906-5.629,12.07-6.973,17.676-20.379,2.601-6.227,6.308-12.707,8.238-14.407,1.93-1.695,5.289-5.168,7.469-7.714l3.957-4.629h-20.118c-18.851,0-20.211,0.281-21.574,4.5-0.801,2.476-5.398,10.578-10.215,18.008-9.949,15.332-14.73,25.777-13.039,28.464,0.637,1.008-3.519,6.356-9.238,11.879-5.719,5.524-10.398,11.301-10.398,12.84s-1.418,4.184-3.149,5.883c-2.258,2.215-3.144,7.613-3.144,19.148,0,12.309-0.797,16.711-3.407,18.836-2.855,2.325-3.144,5.11-1.8,17.227,1.55,13.996,1.554,42.004,0.003,52.527-3.05,20.715-3.695,22.965-5.953,20.75-1.281-1.254-4.441-8.437-7.027-15.965-4.68-13.629-4.684-13.711-0.602-19.328,6.051-8.336,4.723-14.058-1.781-7.679-3.242,3.179-3.242,0.668,0.004-4.43,1.887-2.957,1.934-5.164,0.192-8.719-4.051-8.266-4.547-11.391-2.18-13.715,1.676-1.64,1.254-3.402-1.535-6.426-2.911-3.152-3.129-4.156-0.895-4.132,4.117,0.043,7.207,2.414,8.856,6.789,1.832,4.863,5.632,2.496,5.632-3.512,0-5.977-2.046-7.969-5.39-5.25-1.848,1.504-3.094,1.406-4.188-0.328-0.859-1.367-0.16-3.481,1.571-4.731,5.062-3.66,7.484-9.714,9.132-22.836,0.86-6.855,3.289-14.531,5.457-17.253,2.149-2.7,3.911-6.297,3.911-7.989,0-4.918,8.222-16.613,12.644-17.988,4.223-1.316,12.156-15.113,19.109-33.234,2.243-5.84,5.508-11.782,7.258-13.207,1.75-1.426,4.11-4.286,5.239-6.36,1.914-3.508,0.902-3.769-14.543-3.769-10.805,0-17.313,0.898-18.629,2.57zm-42.555,219.75c0,4.57-2.027,12.211-4.508,16.977-2.476,4.761-4.527,8.66-4.551,8.66-0.023,0,1.204,2.285,2.723,5.074,3.098,5.676,4.418,22.355,1.891,23.887-4.961,3.007-6.778-48.688-2.02-57.438,4.227-7.773,6.465-6.789,6.465,2.84zm164.7-198.46c-12.696,12.918-23.375,25.262-23.731,27.426-0.613,3.73-15.093,17.801-25.871,25.141-4.668,3.179-4.789,3.781-2.07,10.289,5.133,12.297,5.23,19.632,0.387,28.75-4.11,7.73-4.481,11.277-4.063,38.609,0.547,35.672-2.391,53.094-9.394,55.707-2.528,0.941-5.676,3.898-7,6.57-5.301,10.688-11.821,40.411-11.672,53.219,0.156,13.883,6.84,43.414,10.914,48.227,1.281,1.519,6.422,3.769,11.418,5.004,9.715,2.398,15.683,7.16,11.871,9.468-1.211,0.735-2.199,2.75-2.199,4.485,0,1.73-2.125,4.855-4.723,6.945-4.066,3.273-4.356,4.379-2.098,8.02,1.446,2.32,2.625,6.445,2.625,9.164,0,5.976,5.617,12.781,12.071,14.621,3.777,1.078,6.566-0.532,13.859-7.996l9.133-9.348-0.598-14.633-0.594-14.633,10.176-4.148c6.906-2.813,10.875-5.895,12.356-9.598,4.527-11.312,8.875-32.062,11.812-56.41,4.055-33.547,4.024-44.519-0.129-46.082-2.73-1.027-3.187-5.297-2.84-26.394,0.231-13.84-0.113-26.012-0.765-27.047-0.653-1.036-1.809-5.973-2.571-10.973-0.761-5.004-3.355-12.855-5.769-17.449-6.453-12.293-6.074-25.321,1.035-35.387,3.176-4.492,5.774-9.215,5.774-10.492,0-7.11-19.657-3.777-22.086,3.738-0.684,2.113-4.024,5.781-7.414,8.152-7.317,5.106-7.965,11.528-1.93,19.055,3.223,4.012,4.144,7.93,3.828,16.223-0.231,6.015,1.09,16.027,2.937,22.254,3.09,10.422,3.082,11.609-0.07,15.043-2.16,2.347-3.301,6.855-3.082,12.183,0.188,4.653-0.527,9.922-1.594,11.707-1.711,2.868-1.945,2.875-2,0.082-0.035-1.742-1.785-6.472-3.886-10.515-3.172-6.098-3.754-11.731-3.426-33.114,0.219-14.168,1.012-26.742,1.766-27.941,0.753-1.195,0.171-2.926-1.293-3.848-3.907-2.441-1.735-40.062,2.386-41.398,2.067-0.668,2.547,0.098,1.586,2.543-1.597,4.094,2.371,3.367,16.942-3.106,4.894-2.171,9.996-3.949,11.343-3.949,3.828,0,16.485-10.183,16.485-13.265,0-2.989,13.566-15.543,16.797-15.543,2.882,0,35.66-24.532,35.66-26.692,0-1.011,1.652-2.386,3.672-3.051,2.019-0.668,6.976-3.945,11.015-7.285l7.344-6.074-34.621,0.129-34.625,0.129-23.078,23.488zm-4.199,31.703c-3.317,3.395-7.036,6.145-8.262,6.114-2.352-0.067,10.465-12.289,12.887-12.289,0.773,0-1.309,2.781-4.625,6.175zm-53.88,181.43c0.066,4.715-1.102,10.285-2.59,12.371-1.629,2.278-2.453,8.102-2.063,14.574l0.649,10.782-2.211-11.067c-1.664-8.324-1.531-14.058,0.523-23.148,3.203-14.16,5.52-15.59,5.692-3.512zm61.48,7.219c-1.828,3.086-2.238,3.172-2.289,0.496-0.07-3.465,2.137-6.586,3.625-5.125,0.488,0.48-0.113,2.562-1.336,4.629zm-283.18,55.476c0.414,2.114,1.688,3.606,2.825,3.325,3.05-0.758,2.515-5.168-0.754-6.239-1.84-0.601-2.559,0.414-2.071,2.914zm-34.906,12.989c-1.844,2.929,0.508,6.285,4.406,6.285,1.84,0,2.891-1.449,2.5-3.434-0.816-4.133-5.007-5.863-6.906-2.851z"/><g mask="url(#mask30)"><g clip-path="url(#clipPath44)"><path fill-rule="nonzero" fill="url(#linearGradient48)" d="m24.961,277.36,0,64.481,562.64,0,0-64.481-562.64,0z"/></g></g><path fill-rule="nonzero" fill="#000" d="m30.941,272.23,21.836,0c14.098,0,23.618-0.524,28.563-1.567,4.992-1.047,8.781-2.762,11.367-5.152,2.59-2.387,4.207-5.055,4.855-8.004,0.645-2.91,0.969-8.656,0.969-17.242v-31.739c0-8.136-0.484-13.586-1.457-16.347-0.922-2.723-2.562-4.867-4.922-6.438-2.355-1.527-5.265-2.609-8.734-3.246-3.465-0.598-8.688-0.894-15.664-0.894h-36.813v90.629m29.188-15.508,0-59.617c4.203,0,6.793,0.671,7.762,2.015,0.972,1.383,1.457,5.094,1.457,11.141v35.211c0,4.105-0.164,6.734-0.485,7.894-0.324,1.156-1.062,1.996-2.218,2.52-1.157,0.558-3.329,0.836-6.516,0.836"/><path fill-rule="nonzero" fill="#000" d="m133.61,227.12-26.273,0,0,4.981c0,5.746,0.809,10.168,2.426,13.265,1.664,3.137,4.968,5.899,9.914,8.286,4.945,2.39,11.367,3.582,19.269,3.582,9.477,0,16.617-1.36,21.422-4.086,4.805-2.688,7.695-6.008,8.664-9.965,0.973-3.918,1.457-12.016,1.457-24.293v-37.281h-27.242v6.605c-1.711-2.648-3.93-4.648-6.656-5.988-2.68-1.309-5.891-1.961-9.637-1.961-4.898,0-9.402,1.101-13.515,3.301-4.067,2.242-6.102,7.109-6.102,14.613v6.101c0,5.559,1.086,9.348,3.258,11.364,2.172,2.015,7.554,4.367,16.152,7.054,9.195,2.911,14.117,4.868,14.766,5.875,0.648,1.008,0.968,3.063,0.968,6.161,0,3.879-0.367,6.398-1.109,7.554-0.691,1.196-1.871,1.793-3.535,1.793-1.895,0-3.07-0.504-3.535-1.511-0.461-0.973-0.692-3.528-0.692-7.668v-7.782m8.871-10.191c-4.48-2.649-7.093-4.867-7.832-6.66-0.691-1.789-1.039-4.367-1.039-7.723,0-3.848,0.301-6.328,0.903-7.445,0.644-1.121,1.894-1.68,3.742-1.68,1.754,0,2.887,0.426,3.394,1.285,0.555,0.899,0.832,3.211,0.832,6.942v15.281"/><path fill-rule="nonzero" fill="#000" d="m240.43,255.89-11.368-29.614,14.766-44.671-26.969,0-8.734,32.355,0-32.355-28.004,0,0,90.629,28.004,0,0-38.067,8.734,21.723,23.571,0"/><path fill-rule="nonzero" fill="#000" d="m273.09,227.12-26.274,0,0,4.981c0,5.746,0.809,10.168,2.426,13.265,1.664,3.137,4.969,5.899,9.914,8.286,4.946,2.39,11.368,3.582,19.27,3.582,9.476,0,16.613-1.36,21.422-4.086,4.804-2.688,7.695-6.008,8.664-9.965,0.972-3.918,1.457-12.016,1.457-24.293v-37.281h-27.246v6.605c-1.707-2.648-3.926-4.648-6.653-5.988-2.679-1.309-5.894-1.961-9.636-1.961-4.899,0-9.407,1.101-13.516,3.301-4.07,2.242-6.102,7.109-6.102,14.613v6.101c0,5.559,1.086,9.348,3.258,11.364,2.172,2.015,7.555,4.367,16.153,7.054,9.195,2.911,14.117,4.868,14.765,5.875,0.645,1.008,0.969,3.063,0.969,6.161,0,3.879-0.367,6.398-1.109,7.554-0.692,1.196-1.871,1.793-3.536,1.793-1.894,0-3.07-0.504-3.535-1.511-0.461-0.973-0.691-3.528-0.691-7.668v-7.782m8.871-10.191c-4.48-2.649-7.094-4.867-7.832-6.66-0.695-1.789-1.039-4.367-1.039-7.723,0-3.848,0.301-6.328,0.898-7.445,0.649-1.121,1.899-1.68,3.746-1.68,1.754,0,2.887,0.426,3.395,1.285,0.555,0.899,0.832,3.211,0.832,6.942v15.281"/><path fill-rule="nonzero" fill="#000" d="m347.6,255.89-1.109-9.742c4.066,6.98,9.961,10.671,17.68,11.082v-26.141c-5.133,0-8.899-0.559-11.301-1.68-2.402-1.117-3.883-2.687-4.437-4.703-0.555-1.976-0.833-6.566-0.833-13.769v-29.332h-28.003v74.285h28.003"/><path fill-rule="nonzero" fill="#000" d="m400.36,272.23,0-72.493,17.746,0,0-18.136-46.929,0,0,90.629,29.183,0"/><path fill-rule="nonzero" fill="#000" d="m491.59,272.23,0-60.571c0-6.867-0.278-11.699-0.832-14.496-0.555-2.762-2.196-5.617-4.922-8.566-2.727-2.91-6.332-5.129-10.816-6.66-4.438-1.493-9.68-2.239-15.735-2.239-6.703,0-12.617,0.895-17.746,2.688-5.133,1.789-8.969,4.121-11.508,6.996-2.543,2.871-4.043,5.894-4.508,9.066-0.461,3.211-0.691,9.93-0.691,20.153v53.629h29.184v-67.958c0-3.957,0.254-6.496,0.761-7.613,0.555-1.082,1.641-1.625,3.258-1.625,1.852,0,3.027,0.598,3.535,1.793,0.555,1.231,0.832,4.106,0.832,8.621v66.782h29.188"/><path fill-rule="nonzero" fill="#000" d="m569.85,238.87-29.184,0,0,8.231c0,5.187-0.277,8.433-0.832,9.738-0.555,1.309-1.871,1.961-3.949,1.961-1.805,0-3.028-0.563-3.676-1.68-0.649-1.121-0.969-3.992-0.969-8.621v-43.496c0-4.066,0.32-6.754,0.969-8.062,0.648-1.266,1.941-1.903,3.883-1.903,2.125,0,3.558,0.731,4.297,2.184,0.785,1.457,1.179,4.293,1.179,8.508v10.75h-5.894v13.769h34.176v-48.644h-18.368l-2.707,6.492c-1.984-2.797-4.504-4.906-7.554-6.324-3.004-1.383-6.563-2.071-10.676-2.071-4.899,0-9.496,0.949-13.793,2.852-4.254,1.941-7.488,4.332-9.707,7.168s-3.606,5.801-4.16,8.898c-0.555,3.137-0.832,7.821-0.832,14.051v26.926c0,8.66,0.578,14.949,1.734,18.867s4.461,7.5,9.914,10.746c5.5,3.285,12.594,4.926,21.281,4.926,8.551,0,15.645-1.418,21.282-4.254,5.636-2.836,9.312-6.215,11.023-10.133,1.707-3.879,2.563-9.535,2.563-16.961v-3.918"/></g></svg>
