<!-- Created with Inkscape (http://www.inkscape.org/) -->
<svg xmlns:rdf="http://www.w3.org/1999/02/22-rdf-syntax-ns#" xmlns="http://www.w3.org/2000/svg" xml:space="preserve" height="1052.4" width="744.09" version="1.1" xmlns:cc="http://creativecommons.org/ns#" xmlns:dc="http://purl.org/dc/elements/1.1/"><metadata><rdf:RDF><cc:Work rdf:about=""><dc:format>image/svg+xml</dc:format><dc:type rdf:resource="http://purl.org/dc/dcmitype/StillImage"/><dc:title/></cc:Work></rdf:RDF></metadata><g transform="matrix(1.25,0,0,-1.25,0,1052.3622)"><g transform="matrix(1,0,0,-1,0,841.88977)"><path stroke-linejoin="miter" d="m36.812,386.42,527.26,0,0,28.879-527.26,0,0-28.879z" fill-rule="nonzero" stroke="#000" stroke-linecap="butt" stroke-miterlimit="4" stroke-dasharray="none" stroke-width="11.737553" fill="#000"/></g><path fill-rule="nonzero" fill="#000" d="m30.941,417.84,21.836,0c14.098,0,23.618-0.523,28.563-1.57,4.992-1.043,8.781-2.762,11.367-5.149,2.59-2.386,4.207-5.058,4.855-8.004,0.645-2.91,0.969-8.66,0.969-17.242v-31.742c0-8.133-0.484-13.582-1.457-16.344-0.922-2.722-2.562-4.871-4.922-6.437-2.355-1.531-5.265-2.613-8.734-3.246-3.465-0.598-8.688-0.899-15.664-0.899h-36.813v90.633m29.188-15.508,0-59.617c4.203,0,6.793,0.672,7.762,2.016,0.972,1.379,1.457,5.093,1.457,11.14v35.211c0,4.106-0.164,6.735-0.485,7.891-0.324,1.156-1.062,1.996-2.218,2.519-1.157,0.559-3.329,0.84-6.516,0.84"/><path fill-rule="nonzero" fill="#000" d="m133.61,372.71-26.273,0,0,4.984c0,5.746,0.809,10.168,2.426,13.266,1.664,3.133,4.968,5.895,9.914,8.285,4.945,2.387,11.367,3.582,19.269,3.582,9.477,0,16.617-1.363,21.422-4.086,4.805-2.687,7.695-6.008,8.664-9.965,0.973-3.918,1.457-12.015,1.457-24.293v-37.285h-27.242v6.606c-1.711-2.649-3.93-4.645-6.656-5.989-2.68-1.304-5.891-1.957-9.637-1.957-4.898,0-9.402,1.098-13.515,3.301-4.067,2.238-6.102,7.11-6.102,14.61v6.101c0,5.563,1.086,9.352,3.258,11.363,2.172,2.016,7.554,4.368,16.152,7.055,9.195,2.91,14.117,4.871,14.766,5.879,0.648,1.008,0.968,3.059,0.968,6.156,0,3.883-0.367,6.403-1.109,7.559-0.691,1.195-1.871,1.789-3.535,1.789-1.895,0-3.07-0.504-3.535-1.512-0.461-0.969-0.692-3.523-0.692-7.668v-7.781m8.871-10.188c-4.48-2.648-7.093-4.871-7.832-6.66-0.691-1.793-1.039-4.367-1.039-7.726,0-3.844,0.301-6.324,0.903-7.446,0.644-1.117,1.894-1.679,3.742-1.679,1.754,0,2.887,0.429,3.394,1.289,0.555,0.894,0.832,3.207,0.832,6.941v15.281"/><path fill-rule="nonzero" fill="#000" d="m240.43,401.49-11.368-29.613,14.766-44.672-26.969,0-8.734,32.36,0-32.36-28.004,0,0,90.633,28.004,0,0-38.066,8.734,21.718,23.571,0"/><path fill-rule="nonzero" fill="#000" d="m273.09,372.71-26.274,0,0,4.984c0,5.746,0.809,10.168,2.426,13.266,1.664,3.133,4.969,5.895,9.914,8.285,4.946,2.387,11.368,3.582,19.27,3.582,9.476,0,16.613-1.363,21.422-4.086,4.804-2.687,7.695-6.008,8.664-9.965,0.972-3.918,1.457-12.015,1.457-24.293v-37.285h-27.246v6.606c-1.707-2.649-3.926-4.645-6.653-5.989-2.679-1.304-5.894-1.957-9.636-1.957-4.899,0-9.407,1.098-13.516,3.301-4.07,2.238-6.102,7.11-6.102,14.61v6.101c0,5.563,1.086,9.352,3.258,11.363,2.172,2.016,7.555,4.368,16.153,7.055,9.195,2.91,14.117,4.871,14.765,5.879,0.645,1.008,0.969,3.059,0.969,6.156,0,3.883-0.367,6.403-1.109,7.559-0.692,1.195-1.871,1.789-3.536,1.789-1.894,0-3.07-0.504-3.535-1.512-0.461-0.969-0.691-3.523-0.691-7.668v-7.781m8.871-10.188c-4.48-2.648-7.094-4.871-7.832-6.66-0.695-1.793-1.039-4.367-1.039-7.726,0-3.844,0.301-6.324,0.898-7.446,0.649-1.117,1.899-1.679,3.746-1.679,1.754,0,2.887,0.429,3.395,1.289,0.555,0.894,0.832,3.207,0.832,6.941v15.281"/><path fill-rule="nonzero" fill="#000" d="m347.6,401.49-1.109-9.738c4.066,6.977,9.961,10.672,17.68,11.082v-26.14c-5.133,0-8.899-0.563-11.301-1.68-2.402-1.121-3.883-2.688-4.437-4.703-0.555-1.977-0.833-6.567-0.833-13.77v-29.336h-28.003v74.285h28.003"/><path fill-rule="nonzero" fill="#000" d="m400.36,417.84,0-72.492,17.746,0,0-18.141-46.929,0,0,90.633,29.183,0"/><path fill-rule="nonzero" fill="#000" d="m491.59,417.84,0-60.57c0-6.867-0.278-11.699-0.832-14.5-0.555-2.762-2.196-5.614-4.922-8.563-2.727-2.91-6.332-5.133-10.816-6.664-4.438-1.492-9.68-2.238-15.735-2.238-6.703,0-12.617,0.898-17.746,2.687-5.133,1.793-8.969,4.125-11.508,6.997-2.543,2.875-4.043,5.898-4.508,9.07-0.461,3.211-0.691,9.926-0.691,20.152v53.629h29.184v-67.961c0-3.953,0.254-6.492,0.761-7.613,0.555-1.082,1.641-1.621,3.258-1.621,1.852,0,3.027,0.597,3.535,1.789,0.555,1.234,0.832,4.105,0.832,8.621v66.785h29.188"/><path fill-rule="nonzero" fill="#000" d="m569.85,384.47-29.184,0,0,8.226c0,5.188-0.277,8.434-0.832,9.743-0.555,1.304-1.871,1.957-3.949,1.957-1.805,0-3.028-0.559-3.676-1.68-0.649-1.117-0.969-3.992-0.969-8.621v-43.492c0-4.071,0.32-6.758,0.969-8.063,0.648-1.269,1.941-1.902,3.883-1.902,2.125,0,3.558,0.726,4.297,2.183,0.785,1.453,1.179,4.289,1.179,8.508v10.746h-5.894v13.774h34.176v-48.649h-18.368l-2.707,6.496c-1.984-2.8-4.504-4.906-7.554-6.328-3.004-1.379-6.563-2.07-10.676-2.07-4.899,0-9.496,0.953-13.793,2.855-4.254,1.942-7.488,4.329-9.707,7.164-2.219,2.836-3.606,5.805-4.16,8.903-0.555,3.133-0.832,7.816-0.832,14.051v26.925c0,8.657,0.578,14.946,1.734,18.864s4.461,7.504,9.914,10.75c5.5,3.285,12.594,4.925,21.281,4.925,8.551,0,15.645-1.418,21.282-4.253,5.636-2.836,9.312-6.215,11.023-10.133,1.707-3.883,2.563-9.535,2.563-16.961v-3.918"/><path fill-rule="nonzero" fill="#FFF" d="m195.54,378.63c-0.051,2.633,0.508,8.207,1.246,12.387,1.305,7.414,1.149,9.41-0.734,9.386-1.266-0.019-3.196-5.207-3.883-10.445-0.34-2.601-1.438-5.308-2.738-6.746-1.192-1.324-2.446-3.758-2.789-5.406-0.528-2.578-0.75-2.774-1.559-1.371-1.191,2.066-0.293,10.386,1.922,17.781,2.121,7.094,2.113,7.219-0.406,6.824-1.536-0.238-2.758-1.816-4.598-5.945-4.906-11.008-5.625-12.184-7.648-12.496-1.192-0.188-2.45-1.442-3.114-3.102-1.785-4.472-1.922-2.633-0.398,5.254,1.012,5.235,1.117,7.445,0.375,7.684-1.723,0.547-1.25,1.992,2.578,7.89,3.738,5.762,3.914,7.289,0.832,7.25-2.336-0.031-5.727-4.757-8.77-12.226-3.175-7.805-3.992-8.696-4.046-4.43-0.032,2.442-0.454,3.442-1.442,3.426-0.769-0.008-1.402,0.32-1.406,0.73-0.027,1.942,6.184,10.414,13.082,17.856,10.852,11.703,12.738,14.25,12.055,16.301-0.399,1.207-0.125,1.757,0.882,1.769,1.653,0.02,1.934,1.473,0.458,2.36-2.305,1.382,2.757,9.472,12.519,20.003,6.25,6.743,8.156,7.422,7.445,2.649-0.621-4.152,1.071-5.598,5.625-4.797,1.871,0.332,3.684,1.066,4.028,1.641,0.804,1.339,6.98,0.32,8.445-1.399,0.82-0.961,0.625-2.222-0.832-5.328-2.727-5.836-2.324-9.191,0.73-6.059,1.442,1.477,1.403,0.762-0.164-3.128-0.707-1.75-2.082-7.645-3.062-13.09-1.652-9.211-5.418-18.434-7.57-18.547-0.399-0.024-0.481,2.687-0.184,6.023,0.465,5.199,0.328,6.059-0.953,6.043-3.004-0.039-3.824-3.898-4.102-19.308-0.144-8.289-0.578-15.387-0.961-15.778-0.379-0.39-1.73,0.242-3,1.403-3.011,2.757-5.179,1.879-5.172-2.094,0.004-1.684-0.578-4.113-1.292-5.402-1.258-2.266-1.305-2.18-1.399,2.437zm5.629,53.875c0.234,2.328,0.012,2.621-1.66,2.16-1.278-0.351-1.938-0.09-1.946,0.781-0.031,2.149-3.417,1.438-5.003-1.054-2.637-4.141-1.973-5.067,3.449-4.813,4.652,0.223,4.898,0.364,5.16,2.926z"/><path fill-rule="nonzero" fill="#000" d="m163.96,373.61c-2.567,0.742-3.633,2.14-4.301,5.625-0.488,2.554-1.617,4.734-2.508,4.851-3.125,0.41-4.269,6.688-2.5,13.695,1.434,5.661,2.617,7.383,7.664,11.149,7.168,5.34,10.539,10.047,16.051,22.383,2.285,5.117,4.961,10.089,5.945,11.043,0.989,0.957,3.891,4.882,6.454,8.726,3.472,5.207,4.335,7.41,3.386,8.645-0.949,1.234-1.836,1.3-3.484,0.261-2.656-1.679-2.711,0.258-0.121,4.329,1.539,2.418,1.511,2.453-0.278,0.394-3.761-4.32-7.058-6.363-8.773-5.434-2.816,1.524-11.328-1.468-22.465-7.902-9.254-5.348-10.508-6.519-11.004-10.305-0.722-5.531-2.636-6.285-5.738-2.25l-2.488,3.235-4.953-2.07c-2.727-1.141-5.457-3.403-6.071-5.032-1.34-3.562-5.879-3.98-8.351-0.765-2.262,2.941-2.715,2.929-3.938-0.075-2.058-5.078-6.945-0.527-7.355,6.856-0.196,3.516,0.543,5.398,3.301,8.406,1.953,2.129,4.07,4.016,4.703,4.188,0.636,0.172,4.769,2.73,9.183,5.679,4.723,3.157,9.871,5.469,12.504,5.614,6.192,0.347,7.18,3.711,5.883,19.992-1.113,14-0.07,27.742,2.18,28.762,1.382,0.621,5.914,10.578,8.254,18.14,0.914,2.949,2.828,5.305,5.527,6.805,3.598,1.996,4.664,2.031,8.242,0.269,6.359-3.129,13.168-10.636,12.078-13.316-0.504-1.25-0.195-3.051,0.692-4.004,0.886-0.957,1.496-2.625,1.351-3.711-0.34-2.625,6.961-11.73,9.699-12.086,1.614-0.211,1.758-0.66,0.567-1.765-1.008-0.938-1.246-2.231-0.641-3.532,0.707-1.527,1.012-1.617,1.192-0.359,0.226,1.594,5.281,10.246,11.55,19.777,2.856,4.344,14.664,14.192,20.953,17.481,1.942,1.015-1.335,0.039-7.285-2.172-10.312-3.824-10.949-3.899-13.683-1.547-1.578,1.355-2.746,3.391-2.602,4.523,0.246,1.864,0.551,1.817,3.238-0.492,4.036-3.465,8.286-1.91,8.965,3.281,0.692,5.309,3.024,9.161,8.391,13.875l4.664,4.094-3.543,1.301c-14.688,5.395-20.238,9.406-19.613,14.184,0.539,4.113,2.258,7.222,3.461,6.246,0.523-0.43,0.539-1.793,0.035-3.035-1.965-4.836,11.629-9.739,20.926-7.547,21.953,5.172,24.953,5.519,33.625,3.882,4.75-0.894,7.992-1.089,7.207-0.433-0.782,0.656-5.551,1.738-10.59,2.41-8.559,1.137-9.239,1.445-10.239,4.707-0.585,1.918-0.882,4.766-0.656,6.332l0.418,2.844,2.047-3.227c2.258-3.562,8.027-4.949,11.547-2.781,2.07,1.273,8.566,7.711,11.309,11.199,0.964,1.231,0.769,1.559-0.715,1.203-1.125-0.273-2.719,0.055-3.539,0.727-1,0.812,1.195,2.266,6.609,4.375,9.516,3.703,14.758,4.141,19.418,1.617,3.133-1.699,3.852-3.195,6.801-14.176,0.89-3.316,0.929-3.293,1.57,0.938,0.512,3.387-0.305,5.59-3.711,10.019-4.086,5.309-4.855,5.739-12.004,6.672-6.59,0.86-8.316,0.551-12.613-2.246-4.832-3.148-8.316-3.808-9.816-1.863-0.403,0.523,0.378,1.59,1.734,2.363,1.516,0.867,1.844,1.508,0.851,1.664-2.718,0.426-1.519,2.364,2.165,3.492,4.992,1.532,6.648,1.063,4.214-1.199-1.906-1.773-1.746-1.797,2.309-0.328,2.398,0.867,4.629,2.082,4.957,2.695,0.324,0.614,4.492,1.512,9.254,1.993,8.059,0.812,8.301,0.929,3.453,1.671-2.863,0.438-8.496,0.352-12.519-0.191-13.821-1.863-14.438-1.84-9.102,0.395,16.711,6.984,48.019,5.636,67.062-2.887,1.215-0.543,2.161-0.496,2.102,0.109-0.437,4.578,6.723,15.852,13.859,21.817,4.793,4.011,5.887,5.679,5.836,8.906-0.074,4.832,1.743,4.961,3.196,0.223,0.875-2.856,0.414-4.586-2.633-9.875-5.012-8.7-5.547-13.786-1.789-17.012,2.855-2.457,2.969-2.442,3.344,0.426,0.48,3.703,8.832,15.898,11.203,16.359,1.23,0.238,0.984-0.559-0.813-2.648-1.73-2.016-2.707-5.059-2.988-9.301l-0.418-6.305,6.793-0.887c4.691-0.613,6.723-1.402,6.57-2.558-0.121-0.922-3.836-4.43-8.254-7.801-5.472-4.172-8.168-7.16-8.457-9.363-0.261-2.012-1.152-3.137-2.359-2.981-1.402,0.184-2.129-1.183-2.617-4.918-1.028-7.859,0.933-6.437,4.968,3.602,4.618,11.492,7.575,13.633,26.137,18.918,13.668,3.89,14.442,3.969,14.102,1.383-0.219-1.676-3.879-5.301-9.442-9.348-4.996-3.641-7.859-6.328-6.367-5.977,1.492,0.356,5.078,0.618,7.969,0.59,3.949-0.039,4.726-0.332,3.133-1.176-1.836-0.972-1.825-1.164,0.097-1.433,1.215-0.172,2.95,0.715,3.844,1.969,0.899,1.254,3.469,2.664,5.711,3.132,3.738,0.778,4.109,0.575,4.461-2.441,0.211-1.809-0.895-5.926-2.457-9.145-2.641-5.437-2.699-5.992-0.844-7.832,2.11-2.085,10.094-2.394,12.649-0.488,2.457,1.832,3.464,0.848,2.976-2.89-0.289-2.227-1.894-4.68-4.109-6.274l-3.633-2.617,6.285-4.586c3.461-2.523,6.652-5.5,7.098-6.613,0.445-1.114,1.597-2.129,2.558-2.254,1.829-0.238,3.758-6.977,3.207-11.199-0.175-1.348-2.062-3.789-4.191-5.426-3.59-2.762-3.766-3.235-2.453-6.528,2.031-5.082,12.574-12.945,21.277-15.867,4.504-1.515,11.543-2.699,17.766-2.988l10.301-0.48,3.539-5.278c4.578-6.824,4.422-11.34-0.192-5.601-6.25,7.777-9.879,4.406-4.156-3.868,3.383-4.894,3.84-6.628,3.141-11.867-0.93-6.91-6.59-15.613-10.305-15.836-2.824-0.172-2.605,3.457,0.25,4.145,2.91,0.703,3.289,6.523,0.641,9.961-1.496,1.949-3.973,3.152-7.418,3.601-2.848,0.371-5.211,0.403-5.254,0.075-0.043-0.332,1.308-3.582,3.004-7.227,1.695-3.645,2.957-7.566,2.808-8.719-0.152-1.152,1.485-3.344,3.637-4.875s6.766-5.164,10.254-8.074l6.344-5.289-5.145-0.637c-5.832-0.719-17.008-0.875-42.621-0.59-19.043,0.207-49.34-2.113-55.066-4.222l-3.512-1.293,1.953-5.149c2.879-7.597,1.965-11.578-2.883-12.59-2.187-0.453-6.316-1.66-9.18-2.679-2.859-1.016-5.972-1.75-6.91-1.625-0.937,0.121-2.168-0.629-2.73-1.668-2.215-4.094-13.406-5.922-14.383-2.348-0.309,1.137-1.617,0.664-3.937-1.426-2.946-2.66-4.032-2.902-7.192-1.605-4.574,1.879-6.219,8.539-4.832,19.57,0.512,4.098,0.473,7.512-0.09,7.586-0.566,0.074-3.617-0.414-6.777-1.086-3.164-0.676-8.734-0.84-12.379-0.367-14.207,1.832-36.629-2.359-65.289-12.211-18.336-6.301-24.324-10.121-27.43-17.488-1.285-3.059-4.121-6.621-6.625-8.324-3.836-2.618-4.336-3.551-4.074-7.641,0.168-2.563-0.082-7.824-0.547-11.691-0.777-6.446-1.258-7.297-5.687-10.11-2.918-1.851-6.364-2.875-8.676-2.574-2.109,0.277-5.875,0.051-8.371-0.496-4.238-0.938-4.727-0.731-7.496,3.168l-2.965,4.172-1.602-3.297c-1.644-3.399-3.187-3.531-11.855-1.027zm7.531,5.394c0.289,2.203,1.133,3.063,2.793,2.848,2.414-0.317,4.297,2.914,8.18,14.043,1.195,3.429,2.547,5.062,4.265,5.164,1.993,0.117,2.243-0.321,1.211-2.117-0.715-1.243-2.105-6.301-3.09-11.239-1.363-6.859-1.39-9.644-0.113-11.82,1.602-2.727,1.703-2.648,2.332,1.855,0.41,2.961,1.41,4.891,2.692,5.2,1.429,0.343,2.285,2.394,2.871,6.89,0.937,7.176,2.293,10.371,4.285,10.114,0.883-0.118,0.633-3.454-0.734-9.735-1.27-5.847-1.715-11.027-1.141-13.336l0.941-3.773,1.551,2.867c0.852,1.574,1.391,4.254,1.191,5.949-0.511,4.391,2.368,5.082,4.801,1.153,1.867-3.016,2.172-3.129,3.242-1.176,0.649,1.183,1.086,4.086,0.973,6.449-0.898,18.469-0.707,22.934,1.125,26.23,2.875,5.188,4.875,2.399,3.059-4.269-1.196-4.395-1.114-5.598,0.406-5.797,1.051-0.137,2.066,0.766,2.25,2.008s1.328,3.262,2.535,4.492c1.539,1.563,2.57,5.383,3.43,12.703,0.855,7.313,2.105,11.945,4.137,15.356,1.597,2.683,3.976,6.664,5.281,8.843,1.301,2.18,2.062,4.008,1.687,4.055-0.375,0.051-2.511-2.926-4.754-6.613-4.652-7.656-6.797-8.469-5.164-1.957,0.617,2.453,1.637,4.39,2.274,4.308,1.89-0.246,1.676,2.664-0.34,4.582-1.988,1.895-9.82,2.411-9.004,0.594,0.594-1.308-7.277-1.973-8.793-0.738-0.598,0.484-0.676,1.387-0.176,2s0.684,2.383,0.406,3.926c-0.492,2.734-0.613,2.726-4.71-0.286-2.313-1.703-4.743-4.246-5.399-5.648s-3.113-4.391-5.457-6.637c-4.687-4.492-8.055-12.101-5.496-12.437,0.84-0.11,1.086-0.742,0.547-1.406-0.543-0.664-1.617-0.707-2.391-0.094-0.808,0.64-0.777,0.086,0.074-1.297,1.696-2.75,1.207-3.469-11.218-16.551-8.887-9.359-14.055-16.828-14.367-20.758-0.176-2.207-0.008-2.414,0.648-0.797,1.391,3.426,4.387,2.262,3.226-1.253-0.542-1.653-0.445-3.45,0.223-3.993,0.723-0.586,2.231,1.95,3.723,6.266,2.898,8.379,6.051,13.395,8.84,14.066,3.558,0.86,3.343-1.207-0.657-6.363-4.152-5.348-5.668-9.836-2.902-8.586,1.176,0.531,1.031-1.719-0.551-8.535-1.496-6.465-1.695-9.051-0.648-8.582,0.82,0.371,1.68,2.098,1.906,3.832zm19.938,51.988c0.289,2.211,3.398,6.047,4.757,5.871,0.688-0.089,1.125-1.183,0.973-2.429-0.219-1.793,0.012-1.926,1.086-0.633,2.211,2.656,4.336-0.07,2.289-2.934-1.379-1.922-2.059-2.05-3.375-0.632-1.176,1.265-1.703,1.359-1.84,0.324-0.105-0.797-1.062-1.336-2.129-1.196-1.066,0.137-1.859,0.872-1.761,1.629zm-25.122-51.39c0.481,3.672-1.328,4.566-2.996,1.484-0.613-1.133-0.429-2.621,0.411-3.32,2.121-1.77,2.117-1.774,2.585,1.836zm-39.675,58.855c0.101,0.848,2.246,2.824,4.758,4.395,3.847,2.402,4.851,3.992,6.324,10.027,1.504,6.16,1.445,7.211-0.407,7.449-3.558,0.465-9.164-3.676-12.117-8.953-2.5-4.465-2.621-5.289-1.199-8.23,0.91-1.883,1.07-4.215,0.379-5.489-0.824-1.527-0.687-1.988,0.437-1.48,0.899,0.406,1.719,1.434,1.825,2.281zm-7.336,7.547c1.73,5.789-0.434,6.52-4.02,1.352-3.16-4.547-2.765-10.161,0.531-7.621,1.153,0.886,2.719,3.707,3.489,6.269zm33.863,6.41c5.461,2.852,4.188,9.246-2.004,10.055-3.109,0.406-10.062-3.984-10.398-6.563-0.114-0.871,0.922-1.242,2.621-0.937,2.484,0.445,2.609,0.223,1.062-1.934-2.488-3.48-2.496-5.562-0.015-4.961,1.66,0.399,1.875-0.101,0.972-2.289-0.734-1.777-0.101-1.375,1.731,1.094,1.59,2.145,4.301,4.633,6.031,5.535zm80.152-12.937c1.996,1.441,4.911,3.359,6.473,4.269,2.586,1.496,2.469,1.524-1.277,0.27-2.27-0.762-6.121-3.043-8.555-5.071-4.848-4.039-2.449-3.66,3.359,0.532zm108.61-15.063c0.66-0.086,1.086-1.176,0.953-2.426-0.414-3.82,5.187,5.872,6.183,10.704,1.809,8.781,4.024,15.257,5.165,15.109,0.636-0.086,0.5-5.246-0.301-11.469-1.688-13.105-1.106-15.367,3.804-14.797,4.625,0.539,6.082,4.649,5.696,16.063-0.172,5.062,0.101,9.719,0.609,10.34,1.621,1.996,3.153-0.543,2.649-4.395-0.266-2.051,0.004-4.125,0.601-4.609,0.594-0.489,1.176-3.293,1.285-6.235,0.118-3.144,0.84-5.226,1.758-5.05,2.465,0.464,3.422,6.714,2.059,13.484-0.688,3.422-0.926,6.473-0.524,6.781,0.918,0.707,0.926,0.696,4.071-7.387,1.445-3.718,2.488-7.828,2.316-9.14-0.199-1.527,0.383-2.215,1.621-1.918,3.492,0.844,3.93,3.996,1.508,10.867-2.676,7.582-2.586,16.09,0.121,11.352,1.605-2.817,5.648-3.286,6.852-0.801,0.406,0.84-0.805,3.367-2.692,5.613s-3.808,5.692-4.273,7.66c-0.66,2.801-2.18,4.086-7.043,5.942-7.942,3.039-15.965,2.133-21.957-2.473-3.707-2.852-4.328-4.082-4.473-8.848-0.121-3.918-1.289-7.304-4-11.609-2.68-4.25-4.144-8.473-4.883-14.051-1.113-8.418-0.527-15.07,0.946-10.754,0.41,1.215,1.289,2.133,1.949,2.047zm-168.07,38.176c9.551,2.625,11.012,3.441,12.164,6.785,0.719,2.094,3.965,7.121,7.219,11.176,3.25,4.055,5.621,7.75,5.266,8.207-0.352,0.457-4.215-2.031-8.586-5.531-7.039-5.645-11.074-7.59-10.758-5.192,0.055,0.442,2.398,3.242,5.207,6.227,7.75,8.242,7.762,8.433,1.137,18.379-6.11,9.183-9.988,18.027-9.508,21.699,0.383,2.941-4.938,8.867-9.402,10.48-4.852,1.747-7.524-0.203-9.348-6.82-0.754-2.742-2.844-7.57-4.645-10.726-4.167-7.313-4.402-9.266-3.726-31.114,0.535-17.383,0.687-18.156,3.793-19.277,1.777-0.641,4.816-2.535,6.754-4.207,1.937-1.676,3.535-3.051,3.554-3.059,0.016-0.004,4.911,1.332,10.879,2.973zm-18.277,11.137c0.535,0.656,1.516,1.117,2.188,1.031,0.668-0.086,1.14-0.742,1.046-1.453-0.093-0.711-1.078-1.172-2.183-1.028-1.11,0.145-1.582,0.797-1.051,1.45zm19.352,6.144c-0.625,2.594,0.836,4.715,2.378,3.457,1.415-1.148,0.829-5.968-0.703-5.769-0.632,0.082-1.386,1.125-1.675,2.312zm-5.696,6.106c-0.414,0.535-0.504,2.851-0.203,5.148,0.297,2.297-0.668,8.504-2.144,13.797-2.942,10.52-2.633,18.363,0.855,21.879,1.942,1.957,2.383,1.976,3.289,0.148,1.426-2.879,1.156-4.05-1.055-4.586-1.363-0.328-1.761-1.617-1.464-4.699,0.804-8.308,3.527-18.465,5-18.656,1.492-0.195,4.523-9.719,4.05-12.723-0.14-0.871-1.218-0.062-2.398,1.801l-2.145,3.387-0.441-3.379c-0.426-3.266-1.797-4.133-3.344-2.117zm53.871-28.953c-0.347,0.765-1.617,1.484-2.828,1.589-1.793,0.161-1.746-0.07,0.242-1.253,3.266-1.938,3.313-1.946,2.586-0.336zm23.532,4.125c1.738,2.132,3.238,4.687,3.336,5.675,0.093,0.985-1.622-0.773-3.813-3.91-2.637-3.773-5.113-5.84-7.301-6.094-1.824-0.21-3.066-0.941-2.761-1.621,0.847-1.875,6.992,1.59,10.539,5.95zm49.093-7.36c-2.359,10.219-2.601,10.813-2.394,5.903,0.187-4.375,2.332-12.141,3.39-12.278,0.27-0.035-0.179,2.832-0.996,6.375zm14.711-0.262c0.532-0.078,0.762-1.722,0.508-3.66l-0.457-3.519,2.477,2.707c1.75,1.91,2.832,2.254,3.672,1.16,0.839-1.09,1.734-1.207,3.027-0.391,2.125,1.34,4.824-0.32,3.387-2.086-0.594-0.73,0.695-1.246,3.32-1.328,2.359-0.078,4.559,0.422,4.883,1.106,0.832,1.738-11.242,9.078-14.293,8.691-1.375-0.172-3.02,0.508-3.657,1.512-1.664,2.641-8.652,4.726-10.957,3.269-2.339-1.472-3.054-5.824-1.816-11.027l0.91-3.82,4.012,3.761c2.211,2.071,4.453,3.7,4.984,3.625zm-98.39,7.165c-1.215,0.492-2.965,0.699-3.883,0.457-0.922-0.239,0.07-0.641,2.207-0.895,2.137-0.25,2.891-0.055,1.676,0.438zm67-8.34c2.48,0.699,2.433,0.804-0.508,1.133-1.785,0.199-5.047,0.144-7.25-0.122l-4.008-0.48,4.516-0.652c2.484-0.36,5.75-0.305,7.25,0.121zm-71.575,15.918c1.227,1.504-0.488,1.726-3.234,0.422-1.812-0.864-1.801-1.043,0.082-1.305,1.199-0.168,2.621,0.226,3.152,0.883zm135.66-8.864c2.265,5.172,4.859,8.465,9.476,12.012,3.492,2.688,6.668,5.84,7.055,7.004s1.234,1.75,1.883,1.301c0.652-0.446,0.91-1.543,0.578-2.442-0.449-1.203,1.195-1.796,6.289-2.257,3.793-0.344,8.664-1.664,10.82-2.93,2.157-1.27,4.364-1.969,4.903-1.555,1.671,1.285-5.11,10.731-7.336,10.219-4.473-1.027-8.012-0.902-7.86,0.269,0.297,2.274,9.297,4.821,12.871,3.641,2.454-0.808,3.094-0.683,2.231,0.438-2.438,3.171-1.004,4.992,2.465,3.129,3.996-2.149,4.859-1.606,3.437,2.156-0.629,1.656-0.484,4.797,0.332,7.304,1.524,4.672,0.223,5.981-2.984,3-2.774-2.574-3.906-1.882-2.735,1.672,1.254,3.805,1.356,3.785-6.636,1.43-4.821-1.422-6.797-1.477-7.961-0.223-1.153,1.243-1.742,1.266-2.317,0.086-0.613-1.265-1.421-1.175-4.015,0.442-2.559,1.593-3.309,1.687-3.535,0.445-2.43-13.281-5.496-23.082-7.723-24.707-2.445-1.781-2.48-1.563-0.754,4.469,1,3.484,3.145,13.269,4.766,21.738,1.968,10.277,3.16,14.352,3.586,12.258,0.5-2.465,1.312-3.063,3.773-2.774,2.137,0.246,3.856-0.574,5.402-2.582,2.52-3.277,11.118-5.066,17.293-3.597,2.317,0.55,3.227,0.437,2.606-0.325-0.539-0.664-0.063-0.957,1.101-0.675,3.516,0.847,4.418,4.972,2.172,9.949-2.691,5.969-2.429,8.215,0.805,6.898,1.375-0.554,2.563-0.531,2.637,0.055,0.078,0.586,0.613,1.941,1.191,3.008,0.793,1.465,0.223,2.051-2.32,2.383-2.274,0.297-3.461-0.254-3.649-1.7-0.25-1.925-0.48-1.914-2.285,0.125-1.105,1.247-3.011,2.489-4.242,2.762-1.23,0.274-3.246,0.719-4.477,0.988-1.23,0.27-4.257,0.293-6.722,0.051-3.496-0.344-4.32-0.07-3.727,1.242,1.207,2.657,12.446,5.989,21.039,6.235l7.852,0.226-8.414,0.485c-9.738,0.558-19.051-2.098-23.481-6.696-2.273-2.367-3.859-2.929-6.129-2.183-1.679,0.555-2.976,1.613-2.882,2.351,0.097,0.739-1.129,0.442-2.723-0.664-4.035-2.797-4.703-1.105-1.426,3.618l2.754,3.964-4.82-3.089-4.824-3.09-0.297,4.148c-0.399,5.496-2.36,8.383-6.024,8.859-3.242,0.426-4.992,2.625-2.851,3.59,0.722,0.328,3.543,2.758,6.265,5.407l4.95,4.808-3.946-1.906c-3.383-1.637-4.312-1.613-6.504,0.164-2.484,2.008-2.504,1.984-0.632-0.773,1.062-1.563,1.843-3.512,1.738-4.332-0.27-2.071-7.313-2.774-7.703-0.77-0.567,2.914-3.891,2.051-6.481-1.684-1.625-2.339-3.23-3.363-4.332-2.765-2.113,1.144-7.277-5.535-5.437-7.035,0.652-0.532,1.031-2.121,0.847-3.539-0.41-3.129,7.09-7.915,11.578-7.391,1.973,0.23,3.18-0.348,3.5-1.676,0.653-2.707,3.961-3.015,5.805-0.539,1.328,1.785,1.594,1.688,2.586-0.934,0.949-2.515,0.031-4.179-6.582-11.902-7.23-8.445-14.57-20.258-15.098-24.305-0.14-1.097,1.403-2.187,3.914-2.761,3.539-0.817,4.551-2.016,6.883-8.164l2.731-7.207-3.399-4.946c-4.945-7.203-3.386-11.961,4.95-15.125,2.238-0.851,4.746-1.695,5.574-1.875,0.828-0.183,2.91,2.871,4.625,6.789zm-3.797,13.629c-0.25,1.028-0.172,2.082,0.168,2.348,1.062,0.816,7.804-2.422,8.09-3.883,0.41-2.121-7.743-0.605-8.258,1.535zm-1.762,6.414c4.906,3.469,9.234,3.313,8.762-0.316-0.254-1.941-1.156-2.387-3.867-1.906-1.942,0.343-4.754,0.34-6.246-0.012-2.059-0.484-1.731,0.059,1.351,2.234zm-6.605,2.875c0.089,0.668,0.789,1.5,1.558,1.848,0.766,0.344,1.278-0.277,1.133-1.387-0.144-1.109-0.844-1.941-1.555-1.847-0.711,0.093-1.222,0.714-1.136,1.386zm14.711,7.446c-1.137,1.636-3.11,2.847-4.383,2.687-1.274-0.164-3.215,1.031-4.309,2.653-1.976,2.917-1.949,2.929,3.043,1.464,5.106-1.496,10.524-5.73,11.094-8.664,0.512-2.629-3.223-1.355-5.445,1.86zm-23.836,8.289c0.531,0.652,1.808,1.078,2.832,0.945,1.023-0.133,1.789-0.824,1.695-1.535s-1.367-1.137-2.832-0.945c-1.465,0.191-2.227,0.882-1.695,1.535zm6.593,0.398c0.508,0.625,1.739,0.695,2.727,0.16,2.543-1.375,2.133-2.054-0.988-1.644-1.465,0.191-2.246,0.859-1.739,1.484zm-35.14-29.93c-0.207,3.484-0.152,3.512,1.442,0.801,1.464-2.496,1.597-2.535,1.148-0.348-0.281,1.363-0.437,3.047-0.348,3.742,0.09,0.696-0.547,0.942-1.418,0.551-1.144-0.52-1.058,1.711,0.317,8.102l1.894,8.812-2.238-6.769c-2.086-6.309-2.926-18.204-1.301-18.415,0.395-0.05,0.621,1.536,0.504,3.524zm27.207-2.984c2.848,1.796,5.895,9.421,5.633,14.101-0.219,3.899-0.809,4.551-5.328,5.895-2.957,0.875-5.309,2.429-5.617,3.711-0.477,1.976-0.739,1.988-2.559,0.078-1.113-1.172-2.34-1.715-2.726-1.215-0.383,0.5,3.402,6.871,8.41,14.152,9.172,13.332,10.851,16.399,7.621,13.914-2.383-1.832-7.844-0.894-10.602,1.821-2.07,2.039-1.554,2.152,6.098,1.371,7.293-0.743,7.586-0.688,2.297,0.429l-6.063,1.286-1.129,7.308c-1.113,7.223-4.457,10.594-5.164,5.207-0.39-3.019-0.855-3.078-3.992-0.5-3.465,2.848-5.898,0.293-6.879-7.226-0.676-5.188-0.277-6.93,2.309-10.039,3.39-4.079,3.5-6.161,0.668-12.692-1.426-3.281-1.453-3.957-0.121-2.933,2.101,1.617,4.328,1.503,2.98-0.149-0.531-0.656-0.297-1.277,0.52-1.383,0.816-0.109-0.258-1.789-2.383-3.738-5.231-4.789-6.746-14.98-3.27-21.965,3.629-7.285,13.504-11.09,19.297-7.433zm-9.074,18.07c0.09,0.711,0.75,1.219,1.461,1.125s1.219-0.75,1.125-1.461-0.75-1.219-1.461-1.125c-0.715,0.094-1.219,0.75-1.125,1.461zm-7.508,2.953c0.141,1.066,0.836,1.863,1.547,1.77,0.711-0.09,1.18-1.04,1.039-2.106-0.137-1.066-0.832-1.863-1.547-1.773-0.711,0.093-1.176,1.043-1.039,2.109zm6.805,16.867c0.535,0.656,1.844,1.074,2.91,0.938,1.066-0.141,1.504-0.789,0.969-1.442-0.532-0.656-1.84-1.078-2.906-0.937-1.067,0.14-1.504,0.789-0.973,1.441zm-24.508-31.578c0.145,1.109-0.363,1.734-1.133,1.387-0.769-0.348-1.469-1.176-1.558-1.848-0.086-0.668,0.425-1.293,1.136-1.383,0.711-0.093,1.41,0.739,1.555,1.844zm-44.727,13.731c12.618,1.578,24.731,4.363,24.911,5.73,0.043,0.355-2.563-0.133-5.793-1.086-3.235-0.953-12.598-2.41-20.809-3.238-13.816-1.395-17.766-2.231-13.277-2.817,0.992-0.129,7.726,0.504,14.968,1.411zm21.344-1.43c0.031,0.25-0.859,0.23-1.98-0.043-1.117-0.27-2.114-1.082-2.207-1.805-0.098-0.754,0.738-0.738,1.98,0.047,1.18,0.746,2.176,1.555,2.207,1.801zm136.99-18.598c10.458,1.004,10.723,1.102,3.454,1.262-11.469,0.258-11.739,0.297-12.262,1.801-0.262,0.757,2.32,2.406,5.738,3.66,5.086,1.863,5.492,2.219,2.231,1.949-4.746-0.391-9.918-3.016-13.063-6.629-2.082-2.394-2.066-2.64,0.152-2.875,1.336-0.137,7.524,0.238,13.75,0.832zm-122.48,34.145c-0.301,0.386-0.723,0.48-0.941,0.203-0.215-0.278-2.403-2.309-4.86-4.516l-4.468-4.015,5.406,3.808c2.976,2.094,5.164,4.129,4.863,4.52zm130.56-25.18c-0.844,0.477-2.297,0.664-3.235,0.422-0.933-0.242-0.246-0.629,1.532-0.863,1.781-0.231,2.546-0.032,1.703,0.441zm-179.71,42.38c4.476,1.551,7.183,2.949,6.015,3.102-2.449,0.316-19.386-6.926-24.402-10.438-1.863-1.309-4.156-3.437-5.09-4.738-0.933-1.297,2.137,0.254,6.82,3.445,4.684,3.195,12.18,7.078,16.657,8.629zm234.07-46.574c0.277,2.125-4.371,8.699-7.871,11.129-4.668,3.242-4.629,1.531,0.125-5.758,3.586-5.496,7.387-8.129,7.746-5.371zm-164.94,29.269c-0.164,1.289-0.562,0.305-0.886-2.183-0.328-2.492-0.192-3.543,0.293-2.344,0.488,1.203,0.754,3.242,0.593,4.527zm2.965,14.051c-0.929,3.859-2.097,0.984-1.715-4.215,0.356-4.765,0.442-4.871,1.305-1.508,0.508,1.985,0.692,4.559,0.41,5.723zm-14.839,4.598c1.074,2.211,1.464,4.082,0.867,4.16-0.598,0.078-1.621-1.211-2.274-2.867-0.652-1.657-1.707-4.035-2.343-5.285-0.774-1.528-0.668-1.907,0.324-1.153,0.812,0.621,2.355,2.934,3.426,5.145zm112.21-19.531c2.903,1.097,3.899,4.039,1.911,5.656-1.739,1.418-5.352-1.137-5.731-4.051-0.367-2.793,0.133-3.004,3.82-1.605zm36.766-4.848c-1.344,0.797-3.605,1.601-5.027,1.789-2.586,0.336-2.586,0.336-0.145-1.113,1.344-0.797,3.606-1.602,5.028-1.786,2.585-0.339,2.585-0.339,0.144,1.11zm-60.383,11.68c0.469,0.578-0.261,1.507-1.629,2.062-2.441,0.992-3.453,0.031-1.984-1.879,1.043-1.355,2.594-1.433,3.613-0.183zm24.895,4.46c0.32,0.141,0.336,0.575,0.031,0.969-0.301,0.395-2.5-0.945-4.883-2.972l-4.332-3.692,4.305,2.723c2.363,1.496,4.562,2.836,4.879,2.972zm-117.46,16.31c0.141,1.066-0.691,2.062-1.843,2.215-1.719,0.222-1.856-0.117-0.742-1.875,0.746-1.184,1.574-2.18,1.843-2.215,0.27-0.035,0.602,0.808,0.742,1.875zm148.63-20.059c-0.976,0.828-3.406,1.731-5.394,2-2.407,0.328-4.817,2.129-7.192,5.367-3.593,4.903-10.242,11.399-11.89,11.614-0.489,0.062,1.722-2.567,4.914-5.844,6.808-6.992,7.945-8.988,4.89-8.59-4.136,0.539-1.199-1.101,5.727-3.199,10.055-3.047,11.144-3.211,8.945-1.348zm-102.7,19.325c0.137,1.066-0.328,2.015-1.039,2.109-0.715,0.094-1.41-0.703-1.547-1.774-0.141-1.066,0.328-2.015,1.039-2.105,0.711-0.094,1.406,0.703,1.547,1.77zm81.172-12.09c-0.262,0.3-1.844,1.425-3.508,2.504-2.859,1.851-2.906,1.828-0.785-0.375,1.844-1.922,5.863-3.911,4.293-2.129zm-147.78,30.828c3.688,1.808,3.813,2.008,0.981,1.594-5.242-0.774-12.328-2.895-12.438-3.727-0.175-1.359,7.106-0.004,11.457,2.133zm155.36-13.891c-1.598,1.617-4.574,3.758-6.613,4.758-3.524,1.73-3.594,1.703-1.391-0.574,2.16-2.231,8.809-6.781,10.262-7.02,0.355-0.058-0.66,1.215-2.258,2.836zm-55.641,16.805c1.766,2.844,3.43,7.215,3.699,9.711l0.485,4.539-1.887-4.356c-1.039-2.394-2.988-6.726-4.332-9.629-1.344-2.898-2.156-5.304-1.808-5.351,0.347-0.047,2.074,2.242,3.843,5.086zm-5.496,3.68,1.301,3.773-3.188-4.188c-3.753-4.929-4.484-7.343-1.519-5.015,1.156,0.91,2.687,3.351,3.406,5.43zm79.742-13.407c3.102,3.391,3.778,8.977,1.625,13.43-1.707,3.531-9.406,9.68-12.574,10.039-0.922,0.102,0.516-1.184,3.192-2.863,2.671-1.676,5.742-4.348,6.82-5.934,2.32-3.418,1.867-11.512-0.781-13.972-1.668-1.547-2.223-1.465-5.043,0.753l-3.172,2.497,2.879-3.137c3.629-3.946,4.132-4.004,7.054-0.813zm-63.031,15.321c0.113,0.879,2.992,3.64,6.391,6.136,5.683,4.172,13.289,6.602,21.617,6.903,2.851,0.105,2.758,0.215-0.684,0.82-11.586,2.031-26.5-6.086-30.918-16.828-1.234-3-1.191-3.035,1.051-0.875,1.285,1.238,2.43,2.969,2.543,3.844zm-78.195,7.609c3.051,0.406,3.054,0.418,0.668,2.602-1.321,1.207-2.27,3.183-2.11,4.398,0.157,1.215-0.918,2.949-2.394,3.855-1.512,0.93-2.903,3.512-3.192,5.926-0.628,5.231-2.711,7.285-3.238,3.196-0.211-1.645,0.977-5.762,2.641-9.157,3.136-6.398,2.871-9.164-0.938-9.66-1.226-0.16-0.492-0.574,1.633-0.926,2.125-0.351,5.242-0.457,6.93-0.234zm101.96-9.859c2.168,1.113,5.574,2.296,7.578,2.625,2.875,0.476,3.086,0.695,1,1.058-2.539,0.442-15.691-4.863-15.891-6.41-0.113-0.852,1.645-0.199,7.313,2.727zm26.726-3.774c-1.589,1.59-3.73,3.012-4.754,3.16-1.027,0.153-0.093-1.429,2.075-3.511,4.531-4.352,7.054-4.02,2.679,0.351zm-140.26,25.488c-0.579,1.887-1.329,3.219-1.665,2.957-0.683-0.523,1.243-6.199,2.145-6.316,0.316-0.039,0.102,1.469-0.48,3.359zm37.199-6.32c1.933,1.488-8.242,5.535-19.035,7.57l-11.555,2.18,6.656-4.441c5.434-3.621,8.16-4.578,14.867-5.199,4.516-0.422,8.598-0.469,9.067-0.11zm92.297-12.98c-0.887,0.496-2.008,0.597-2.493,0.222-0.488-0.375,0.239-0.777,1.606-0.902,1.516-0.133,1.863,0.133,0.887,0.68zm-60.102,15.199c0.293,2.101,0.055,2.16-2.961,0.703-2.988-1.445-3.437-1.359-5.027,0.953-0.957,1.399-3.535,7.25-5.731,13.008-2.191,5.758-5.347,12.086-7.011,14.066l-3.024,3.602,3.051-5.774c1.68-3.175,4.73-10.824,6.781-16.996,3.352-10.082,4.098-11.269,7.352-11.695,2.023-0.266,3.535-1.187,3.429-2.094-0.304-2.566,2.77,1.567,3.141,4.227zm35.063,10.758c2.769,1.855,4.453,3.453,3.742,3.547-2.055,0.265-11.418-6.461-13.785-9.907-1.188-1.726-2.797-5.129-3.575-7.558-1.175-3.668-0.566-3.149,3.582,3.058,2.75,4.114,7.262,9,10.036,10.86zm-61.52-9.383c-1.215,0.492-2.965,0.699-3.887,0.457-0.922-0.238,0.075-0.641,2.211-0.895,2.137-0.25,2.891-0.054,1.676,0.438zm-15.668,7.113c-3.035,1.82-4.633,2.156-6.027,1.278-1.051-0.665-3.746-0.61-6.051,0.117-3.137,0.992-3.563,0.937-1.727-0.223,1.336-0.844,5.918-2.012,10.184-2.59l7.754-1.054-4.133,2.472zm106.41-12.422c-0.84,0.473-2.297,0.664-3.23,0.422-0.938-0.242-0.246-0.633,1.531-0.863,1.777-0.231,2.543-0.035,1.699,0.441zm-21.722,5.492c-0.883,0.497-2.008,0.598-2.492,0.223-0.485-0.375,0.238-0.781,1.609-0.902,1.515-0.133,1.859,0.133,0.883,0.679zm-109.34,23.012c-1.215,6.125-1.532,6.145-2.317,0.133-0.531-4.094-0.242-5.238,1.235-4.883,1.543,0.371,1.758,1.321,1.082,4.75zm116.26-10.73c-1.566,0.519-3.894,0.808-5.175,0.648-1.278-0.164,0.004-0.586,2.851-0.945,2.848-0.356,3.895-0.223,2.324,0.297zm-40.55,18.769c-1.739,2.367-5.684,5.543-8.766,7.063-8.656,4.269-9.109,3.605-1.102-1.625,3.997-2.614,8.313-5.824,9.59-7.129,3.625-3.711,3.739-3.012,0.278,1.691z"/><path fill-rule="nonzero" fill="#FFF" d="m354.44,423.16c-0.812,2.035-0.828,4.883-0.078,15.5,0.43,6.035,0.328,9.09-0.301,9.078-1.132-0.011-2.113-2.543-5.132-13.234-2.028-7.187-5.813-14.434-5.938-11.363-0.023,0.64-0.637,1.156-1.363,1.144-0.727-0.008-1.524-0.543-1.774-1.187-0.25-0.641-0.515,1.137-0.585,3.953-0.165,6.492,1.425,12.617,5.578,21.473,1.804,3.855,3.269,7.972,3.254,9.156-0.106,7.945,8.132,13.945,18.308,13.34,6.672-0.395,12.328-3.035,14.192-6.629,0.789-1.528,2.816-5.028,4.503-7.774,1.684-2.75,2.852-5.355,2.59-5.789-0.843-1.406-3.453-0.883-5.664,1.145-2.027,1.855-2.195,1.871-2.781,0.281-0.344-0.93-0.016-4.238,0.727-7.352,1.839-7.722,1.941-14.035,0.222-14.054-0.84-0.012-1.773,1.844-2.562,5.09-1.492,6.136-3.832,11.691-5.289,12.566-0.778,0.465-0.856-1.602-0.286-7.754,0.536-5.824,0.446-9.019-0.296-10.453-0.59-1.133-1.328-1.816-1.637-1.512-0.559,0.543-1.633,5.836-3.027,14.934-0.493,3.223-1.141,4.641-2.11,4.629-1.121-0.016-1.484-2.035-1.844-10.27-0.246-5.64-0.492-10.781-0.55-11.422-0.168-1.902-3.633-4.937-5.672-4.964-1.039-0.012-2.16,0.648-2.485,1.468z"/><path fill-rule="nonzero" fill="#FFF" d="m124.55,440.55c-0.453,7.109-0.106,8.914,2.367,12.246,2.758,3.715,7.383,6.973,9.949,7.012,1.426,0.019,1.586-0.496,1.086-3.477-1.027-6.121-3.164-10.488-6.148-12.562-1.59-1.11-3.821-3.121-4.953-4.477l-2.059-2.465-0.242,3.723z"/><path fill-rule="nonzero" fill="#FFF" d="m113.54,441.39c-0.023,1.926,2.234,6.348,4.027,7.875,1.242,1.055,1.45,0.918,1.469-0.981,0.031-2.527-3.117-8.308-4.531-8.324-0.52-0.008-0.953,0.637-0.965,1.43z"/><path fill-rule="nonzero" fill="#FFF" d="m146.07,447.76c-0.007,0.543-0.64,0.976-1.41,0.969-1.742-0.024-1.746,0.335-0.023,3.773,1.355,2.711,1.336,2.766-0.969,2.734-3.309-0.043-2.945,1.368,1.07,4.172,4.063,2.84,7.704,3.129,9.875,0.789,2.496-2.683,1.922-4.156-3.464-8.933-2.786-2.469-5.071-4.043-5.079-3.504z"/><path fill-rule="nonzero" fill="#FFF" d="m159.84,462.89c-1.813,1.48-4.461,3.164-5.883,3.742-1.481,0.601-2.895,2.094-3.305,3.488-0.398,1.34-0.828,10.637-0.957,20.664l-0.238,18.235,3.898,8.832c7.356,16.656,7.442,16.8,10.102,16.828,5.332,0.062,12.262-6.617,12.391-11.946,0.078-3.332,3.765-11.535,8.804-19.597,6.739-10.781,6.801-10.129-1.961-20.117-6.746-7.684-3.418-7.985,6.817-0.61,4,2.879,7.277,4.973,7.281,4.649,0.004-0.325-2-3.43-4.457-6.903-2.457-3.472-5.137-7.648-5.957-9.281-0.817-1.633-2.41-3.586-3.543-4.34-1.598-1.058-18.078-6.457-19.414-6.355-0.156,0.011-1.766,1.23-3.578,2.711zm-1.071,10.781c-0.011,0.867-0.652,1.332-1.57,1.141-2.332-0.481-2.621-2.665-0.351-2.633,1.144,0.015,1.929,0.625,1.921,1.492zm19.297,7.008c0.211,2.461-0.07,2.957-1.668,2.933-1.273-0.015-1.914-0.625-1.898-1.812,0.066-5.176,3.137-6.145,3.566-1.121zm-5.465,6.234,0.891,2.43,1.801-2.16c0.988-1.192,2.109-1.848,2.484-1.461,1.063,1.086-1.5,10.547-3.539,13.074-3.933,4.867-6.301,21.207-3.39,23.394,1.082,0.809,1.332,1.856,0.867,3.606-1.606,6.07-7.094-0.465-6.992-8.332,0.035-2.559,0.953-8.957,2.046-14.211,1.09-5.258,2.008-11.359,2.039-13.563,0.075-5.726,2.161-7.253,3.797-2.777h-0.004z"/><path fill-rule="nonzero" fill="#FFF" d="m332.6,455.31c-7.782,3.5-8.622,6.648-3.852,14.437l3.098,5.059-2.016,5.16c-2.844,7.293-4.227,9.105-7.937,10.391-2.907,1.007-3.207,1.421-2.77,3.769,0.617,3.309,7.371,14.121,14.215,22.746,6.551,8.262,7.328,9.793,6.293,12.426-0.977,2.492-1.586,2.574-3.821,0.496-1.585-1.473-1.828-1.453-3.804,0.316-1.16,1.039-3.582,2.168-5.379,2.512-4.922,0.942-9.297,3.887-9.961,6.703-0.32,1.364-0.77,3.141-0.996,3.957-0.606,2.153,3.058,6.473,5.519,6.504,1.168,0.016,3.204,1.289,4.563,2.856,2.73,3.148,4.726,3.625,5.637,1.351,0.461-1.16,1.371-1.371,3.945-0.922,3.152,0.555,3.258,0.493,1.871-1.078-1.133-1.289-1.211-1.918-0.348-2.758,0.614-0.601,1.606-1.086,2.203-1.078,2.891,0.039,5.883-3.738,6.571-8.297,0.383-2.558,0.988-4.648,1.336-4.64,0.351,0.004,1.586,0.691,2.75,1.527,2.285,1.649,3.961,1.086,2.187-0.734-0.597-0.614-1.078-1.66-1.07-2.328,0.019-1.512,2.996-1.547,4.449-0.059,0.832,0.852,1.492,0.754,2.828-0.426,2.313-2.039,4.449-1.914,8.219,0.485,2.641,1.679,3.113,1.757,3.129,0.504,0.016-1.133,1.035-1.461,4.445-1.418,5.895,0.07,11.41-1.442,14.094-3.856,2.039-1.836,2.25-1.859,3.078-0.336,0.938,1.731,4.043,2.258,4.945,0.84,1.122-1.762-0.613-3.816-3.257-3.852-3.114-0.039-3.278-0.921-1.211-6.535,3.191-8.683,1.836-10.113-8.965-9.461-7.156,0.434-8.684,0.856-12.414,3.414-2.34,1.602-5.305,2.903-6.586,2.887-1.559-0.023-2.61,0.66-3.164,2.055l-0.836,2.082-0.863-2.34c-0.477-1.285-2.149-8.434-3.715-15.887l-2.848-13.543-3.941,3.7c-3.532,3.312-11.27,6.761-12.453,5.546-1.051-1.078,1.855-4.246,4.73-5.152,1.723-0.543,4.34-2.219,5.82-3.726,1.481-1.508,3.25-2.731,3.934-2.723,1.156,0.015,1.105-1.985-0.156-6.289-0.383-1.305,0.464-1.485,2.019-0.426,1.906,1.297,4.153,6.98,6.305,15.953,1.176,4.914,2.308,9.102,2.512,9.313,0.203,0.207,1.293-0.102,2.418-0.688,1.128-0.586,2.929-0.82,4-0.527,1.07,0.297,2.457,0.121,3.082-0.383,0.769-0.621,3.136-0.426,7.316,0.602,3.402,0.835,6.34,1.519,6.531,1.523,0.196,0,0.133-1.465-0.136-3.262-0.547-3.695-0.192-3.89,3.062-1.699,1.266,0.856,2.434,1.395,2.594,1.199,0.16-0.195,0.14-3.367-0.039-7.047-0.324-6.617-0.356-6.683-2.508-5.734-2.613,1.148-5.473,0.23-4.77-1.535,0.371-0.934-0.82-1.414-4.609-1.856-9.063-1.054-12.98-5.953-4.164-5.203,4.094,0.352,4.398,0.199,7.527-3.785,3.625-4.609,2.692-5.937-2.383-3.398-1.503,0.754-5.57,1.855-9.035,2.445-5.164,0.883-6.457,1.465-7.148,3.219-0.465,1.176-0.965,2.136-1.113,2.136-0.145-0.003-3.68-3.296-7.856-7.324-4.621-4.449-8.926-9.679-10.996-13.347-1.871-3.317-3.82-6.168-4.332-6.336s-3.109,0.675-5.773,1.875zm15.32,16.082c-0.02,1.605-4.676,4.152-7.527,4.117-1.372-0.02-1.875-0.52-1.649-1.629,0.649-3.141,9.215-5.465,9.176-2.488zm-1.5,7.922c-0.024,1.91-0.535,2.367-2.828,2.546-2.727,0.211-8.813-2.812-8.793-4.367,0.004-0.422,2.629-0.707,5.832-0.636,5.574,0.121,5.816,0.226,5.789,2.457zm-12.625,3.64c-0.027,2.27-2.203,1.918-2.625-0.426-0.164-0.918,0.316-1.546,1.183-1.535,0.868,0.012,1.457,0.817,1.442,1.961zm-7.121,13.801c0.199,0.004,0.113,0.633-0.192,1.394-0.648,1.622-3.687,1.825-4.597,0.305-0.77-1.281,1.5-2.824,3.195-2.176,0.68,0.262,1.398,0.477,1.594,0.477zm5.996,0.91c-0.012,1.086-2.746,2.082-3.828,1.399-1.629-1.04-0.789-2.29,1.511-2.258,1.282,0.015,2.325,0.402,2.317,0.859z"/><path fill-rule="nonzero" fill="#FFF" d="m324.7,447.07c-0.902,0.219-1.43,0.762-1.164,1.207,1.438,2.391-8.441,3.36-10.922,1.071-1.441-1.336-1.555-1.246-1.41,1.117,0.231,3.769-1.586,3.75-5.695-0.059-2.989-2.769-3.75-3.113-4.235-1.898-1.047,2.629-0.726,9.305,0.535,11.078,1.618,2.273,6.926,1.426,10.758-1.715,1.516-1.242,3.442-2.246,4.282-2.234,2.23,0.027,10.082-4.012,12.171-6.262,0.989-1.07,1.352-1.949,0.801-1.957-0.551-0.004-1.554-0.18-2.234-0.383-0.684-0.203-1.981-0.187-2.887,0.035z"/><path fill-rule="nonzero" fill="#FFF" d="m303.34,568.01c-2.574,0.859-6.371,2.707-8.438,4.105l-3.757,2.547,3.734-0.597c7.5-1.196,17.246-3.836,20.738-5.622l3.578-1.828-5.586-0.086c-3.074-0.043-7.695,0.621-10.269,1.481z"/><path fill-rule="nonzero" fill="#FFF" d="m288.92,561.16c-1.024,0.262-1.36,1.172-1.113,3.028,0.195,1.461-0.594,5.152-1.75,8.207-1.161,3.05-1.965,6.547-1.786,7.769,0.243,1.688,0.715,0.981,1.961-2.949,0.903-2.844,2.496-5.93,3.547-6.852,1.047-0.925,1.914-2.375,1.926-3.222,0.012-0.848,0.645-2.348,1.41-3.332,0.766-0.985,1.41-2.106,1.43-2.489,0.043-0.722-3.067-0.812-5.625-0.16z"/><path fill-rule="nonzero" fill="#FFF" d="m307.85,466.96c-5.223,3.422-7.477,7.504-7.559,13.695-0.082,6.356,0.836,9.239,4.445,13.922,2.868,3.715,3.086,7.157,0.446,6.883-1.242-0.125-1.461,0.289-0.973,1.852,1.727,5.527,1.441,8.84-1.141,13.113-2.25,3.73-2.507,4.887-2.019,9.145,0.308,2.675,1.148,5.683,1.867,6.675,1.176,1.625,1.563,1.676,3.898,0.543,1.426-0.691,2.907-1.402,3.293-1.586,0.383-0.179,1.133,0.864,1.668,2.321,0.926,2.523,1.036,2.566,2.286,0.914,0.722-0.957,1.589-3.672,1.929-6.032,0.336-2.359,1.012-5.23,1.496-6.375,0.774-1.828,0.602-2.089-1.394-2.117-1.578-0.019-2.121-0.429-1.758-1.332,0.633-1.59,4.473-3.129,8.57-3.433l3.036-0.227-6.45-9.867c-3.547-5.426-7.281-11.504-8.293-13.508l-1.847-3.637,2.511,0.664c1.645,0.438,3.043,0.207,4.051-0.66,0.844-0.73,3.223-2.082,5.285-3.004,3.075-1.379,3.805-2.211,4.075-4.636,0.468-4.274-1.208-9.91-3.801-12.789-2.981-3.301-9.028-3.532-13.621-0.524zm6.218,16.285c-0.484,2.332-2.668,2.621-2.636,0.352,0.015-1.145,0.625-1.93,1.492-1.922,0.867,0.012,1.332,0.652,1.144,1.57zm-7.5,3.239c-0.179,1.152-0.746,2.086-1.257,2.082-0.512-0.008-1.051-0.957-1.2-2.114-0.187-1.445,0.203-2.093,1.254-2.078,1.051,0.012,1.426,0.672,1.203,2.11zm7.305,15.613c1.469,0.957,0.578,2.891-1.324,2.867-1.598-0.023-2.609-1.586-1.824-2.82,0.715-1.125,1.476-1.137,3.148-0.047z"/><path fill-rule="nonzero" fill="#FFF" d="m459.44,470.57c-0.929,0.684-2.41,2.18-3.289,3.321-2.015,2.609-5.289,8.281-4.968,8.609,0.425,0.441,2.898-1.062,4.957-3.008,5.324-5.031,8.058-12.433,3.3-8.922z"/><path fill-rule="nonzero" fill="#FFF" d="m384.66,465.37c-0.004,0.258,1.133,1.578,2.528,2.934,2.859,2.773,7.148,4.984,10.636,5.476l2.324,0.329-2.546-1.129c-5.954-2.637-7.321-3.692-6.485-5.008,0.465-0.734,5.227-1.34,10.762-1.367l4.426-0.024-3.024-0.379c-6.027-0.754-18.617-1.316-18.621-0.832z"/><path fill-rule="nonzero" fill="#FFF" d="m348.1,564.66c-0.321,0.504-1.715,1.215-3.164,1.617-1.688,0.469-2.852,1.11-3.352,1.848-0.418,0.621-2.242,5.172-4.055,10.117-1.812,4.942-4.191,11.016-5.285,13.5-1.094,2.481-1.89,4.614-1.769,4.735,0.457,0.472,2.875-4.266,6.339-12.438,7.313-17.238,7.383-17.324,12.079-15.148,1.105,0.511,2.089,0.847,2.195,0.75,0.445-0.438-0.445-3.375-1.387-4.574-0.992-1.266-1.047-1.282-1.601-0.407z"/><path fill-rule="nonzero" fill="#FFF" d="m307.01,566.74c-1.887,0.317-4.504,1.02-5.809,1.563-2.789,1.156-11.664,6.82-10.707,6.836,1.574,0.019,16.063-3.243,19.891-4.481,4.445-1.437,8.664-3.418,8.672-4.074,0.007-0.598-8.176-0.492-12.047,0.156z"/><g transform="matrix(0.986401,0,0,-1,0,841.88977)"><path stroke-linejoin="miter" d="m550.54,384.08c1.473-1.363,1.322-1.359-1.719,0.066-0.503,0.235-0.657,0.024-0.447-0.613,0.174-0.535,0.637-1.004,1.029-1.039,0.388-0.039,0.174-0.312-0.483-0.613-0.653-0.301-3.354-0.535-6.003-0.52-3.79,0.024-5.236,0.274-6.796,1.172-2.265,1.305-3.303,0.992-1.616-0.492,1.066-0.938,0.994-0.969-1.192-0.531-1.374,0.273-2.194,0.226-2.004-0.114,0.179-0.316-0.32-0.539-1.112-0.488-1.394,0.082-1.386,0.051,0.214-1.039,1.053-0.719,1.493-1.437,1.219-1.984-2.447-4.895-2.534-12.93-0.249-22.797,1.322-5.711,1.366-6.512,0.317-5.61-0.923,0.79-4.095,1.77-4.131,1.274-0.012-0.203,0.638-0.934,1.45-1.625,1.813-1.555,1.809-1.941-0.024-2.551-1.2-0.398-1.509-1.012-1.861-3.676-0.373-2.855-0.048-6.355,0.851-9.09,0.222-0.671-0.154-1.031-1.271-1.214-2.479-0.403-7.679,3.648-14.783,11.523-3.434,3.809-6.431,6.774-6.657,6.586-0.614-0.5,0.507-7.133,2.182-12.902,0.816-2.809,1.505-6.102,1.532-7.321,0.032-1.218,0.226-2.519,0.432-2.89,0.21-0.371-0.02-0.879-0.511-1.129-0.693-0.348-0.713-0.465-0.087-0.516,0.444-0.035,1.541,0.582,2.439,1.375,0.899,0.793,1.616,1.196,1.596,0.891-0.023-0.305-0.36-0.817-0.752-1.137-0.511-0.418-0.36-1.43,0.531-3.539,1.053-2.5,1.786-3.254,4.736-4.879,4.534-2.5,7.496-3.058,11.286-2.133,1.929,0.473,5.105,0.594,8.768,0.336,7.9-0.554,11.912,0.59,16.882,4.809,2.154,1.828,5.318,3.769,7.576,4.64,5.928,2.297,6.316,2.805,5.441,7.149-0.848,4.211-0.804,6.07,0.13,6.004,0.373-0.027,0.939-0.86,1.256-1.856,0.705-2.183,1.002-2.254,2.051-0.457,0.943,1.618,0.38,2.145-5.065,4.739-4.079,1.941-4.974,2.754-2.867,2.605,3.307-0.23,8.174-2.445,9.734-4.426,1.342-1.703,1.509-1.781,1.287-0.605-0.143,0.742-0.475,1.5-0.745,1.683-0.269,0.184-0.004,1.247,0.59,2.36,1.771,3.34,3.497,15.312,2.923,20.269-0.8,6.868-2.926,12.305-5.738,14.668-2.4,2.016-6.78,3.621-10.649,3.895-1.093,0.078-2.867,0.734-3.944,1.457-2.495,1.676-3.018,1.703-1.667,0.086l1.069-1.281-2.891,1.41c-3.627,1.769-4.107,1.785-2.257,0.07zm6.894-4.195c1.24-1.121,1.402-1.453,0.547-1.117-0.982,0.382-0.907,0.152,0.384-1.176,0.883-0.91,1.58-1.981,1.552-2.379-0.027-0.403,0.662-1.555,1.537-2.567,1.358-1.574,1.398-1.73,0.277-1.082-1.901,1.098-2.146,0.981-1.216-0.578,0.456-0.761,0.796-1.914,0.761-2.554-0.095-1.743,0.186-5.746,0.463-6.598,0.154-0.469-0.099-0.59-0.697-0.328-0.804,0.359-0.804,0.125,0.012-1.649,0.871-1.882,0.867-1.988-0.036-1.171-0.903,0.812-0.946,0.753-0.495-0.641,0.273-0.844,0.345-1.656,0.159-1.809-0.187-0.152,0.019-1.527,0.451-3.054,0.432-1.528,0.713-3.797,0.626-5.039-0.131-1.899-0.4-2.297-1.687-2.504-1.81-0.297-3.651-3.637-4.606-8.36l-0.626-3.101-3.762-0.164c-5.116-0.227-6.352-0.746-8.039-3.399-0.796-1.254-2.538-2.851-3.873-3.558-2.221-1.172-3.1-1.247-10.672-0.868-8.142,0.411-9.259,0.18-7.643-1.57,1.204-1.301-0.483-0.758-2.63,0.848-1.342,1.008-1.94,1.918-1.794,2.719,0.345,1.863-1.148,2.89-2.827,1.945-1.299-0.731-3.77-0.473-3.707,0.39,0.056,0.789,1.529,1.61,2.289,1.274,0.428-0.188,0.978-0.074,1.228,0.254,0.887,1.164,3.409,0.375,5.287-1.656,1.615-1.75,1.853-1.86,1.627-0.747-0.174,0.875-0.02,1.192,0.479,0.969,0.408-0.179,0.769,0.106,0.808,0.641,0.04,0.578-0.974,1.472-2.55,2.242-1.442,0.703-2.61,1.434-2.594,1.625,0.012,0.191,0.329,0.141,0.697-0.109,0.412-0.282,0.574-0.137,0.42,0.375-0.143,0.461-0.65,0.777-1.129,0.707-0.645-0.094-0.677,0.031-0.115,0.5,0.567,0.472,1.473,0.062,3.663-1.657,4.681-3.668,11.017-6.351,12.867-5.441,0.53,0.258-0.115,0.617-1.774,0.988-1.434,0.321-2.856,0.75-3.157,0.957-0.665,0.453,4.966,2.512,7.917,2.891,3.58,0.465,4.451,1.262,1.263,1.156-1.552-0.051-3.461-0.226-4.249-0.39-1.133-0.239-1.41-0.071-1.347,0.824,0.127,1.82,3.553,6.847,5.632,8.269,1.053,0.719,1.928,1.461,1.94,1.641,0.052,0.707-2.115,0.434-3.259-0.41-1.853-1.367-1.351,0.086,0.527,1.523,0.906,0.696,1.671,1.531,1.691,1.852,0.023,0.32-0.65,0.054-1.493-0.59l-1.537-1.176-1.303,4.656c-2.32,8.27-2.907,11.731-2.867,16.973,0.044,5.664,1.354,9.461,3.659,10.606,1.786,0.886,7.968,1.168,7.33,0.332-0.269-0.352-0.328-0.653-0.13-0.664,0.404-0.032,8.716,1.582,11.116,2.152,2.427,0.582,2.708,0.508,4.605-1.203zm2.155-37.297c-0.757-1.199-1.545-2.567-1.759-3.035-0.225-0.5-0.364-0.246-0.332,0.609,0.059,1.484,2.641,5.488,3.172,4.918,0.158-0.172-0.329-1.293-1.081-2.492z" fill-rule="nonzero" stroke="#000" stroke-linecap="butt" stroke-miterlimit="4" stroke-dasharray="none" stroke-width="1.31832" fill="#000"/></g><path fill-rule="nonzero" fill="#FFF" d="m539.42,462.6c-3.184,0.656-5.766,0.906-5.742,0.554,0.066-0.941-2.418-0.949-5.141-0.015-2.105,0.719-2.512,1.254-3.39,4.484-1.18,4.32-0.907,10.199,0.804,17.305,2.067,8.609,2.129,8.742,3.629,7.937,1.676-0.902,2.524-0.023,1.266,1.309-0.793,0.844-0.711,1.016,0.515,1.105,1.996,0.141,1.782,0.903-0.886,3.133-1.969,1.645-5.196,6.098-5.278,7.281-0.015,0.223,1.493,0.305,3.352,0.192,5.148-0.324,4.906,1.09-0.422,2.473-4.738,1.23-5.781,2.132-3.133,2.707,0.844,0.183,1.512,0.648,1.485,1.031-0.09,1.269-4.293,0.836-7.789-0.805-2.426-1.137-3.465-1.363-3.504-0.769-0.032,0.464-0.539,1.418-1.122,2.121-1.011,1.211-1.124,1.211-2.3-0.032-1.668-1.761-2.004-1.679-1.758,0.43,0.226,1.906,2.371,3.844,2.875,2.602,0.164-0.395,3.621-0.645,7.871-0.571,8.824,0.161,11.543-0.64,14.227-4.183,1.902-2.512,4.742-3.805,7.875-3.578,2.5,0.175,4.41-0.95,4.535-2.68,0.218-3.07,1.961-6.738,4.121-8.684,1.316-1.187,2.097-2.461,1.937-3.175-1.269-5.649-1.675-12.715-0.765-13.2,0.84-0.445,0.523-5.172-0.571-8.519-0.414-1.258-0.472-2.367-0.132-2.461,0.339-0.094-0.415-1.742-1.676-3.664-2.629-3.996-2.707-4.016-10.883-2.328z"/></g></svg>
